<?xml version="1.0" standalone="no"?>
<!DOCTYPE svg PUBLIC "-//W3C//DTD SVG 20010904//EN"
 "http://www.w3.org/TR/2001/REC-SVG-20010904/DTD/svg10.dtd">
<svg version="1.0" xmlns="http://www.w3.org/2000/svg"
 width="512.000000pt" height="512.000000pt" viewBox="0 0 512.000000 512.000000"
 preserveAspectRatio="xMidYMid meet">
<metadata>
Created by potrace 1.11, written by Peter Selinger 2001-2013
</metadata>
<g transform="translate(0.000000,512.000000) scale(0.100000,-0.100000)"
fill="#000000" stroke="none">
<path d="M2517 5043 c-2 -2 -29 -5 -59 -6 -38 -2 -64 -10 -87 -27 -40 -27 -74
-98 -69 -142 3 -28 -2 -34 -47 -61 -61 -36 -503 -291 -550 -317 -18 -10 -52
-30 -74 -44 -22 -15 -42 -26 -45 -26 -2 0 -95 -53 -207 -118 -201 -117 -643
-372 -710 -410 -19 -11 -50 -29 -70 -41 -27 -16 -59 -23 -120 -27 -89 -6 -109
-12 -152 -52 -46 -43 -57 -126 -25 -186 13 -24 23 -34 63 -63 29 -21 29 -22
30 -116 1 -74 -2 -94 -12 -90 -18 7 -18 -123 0 -134 10 -6 13 -168 12 -808 l0
-800 -36 -26 c-77 -57 -87 -175 -19 -240 35 -35 74 -47 133 -44 55 4 61 2 181
-68 69 -39 123 -73 121 -75 -2 -2 -45 -3 -96 -3 -106 1 -108 6 36 -79 l90 -54
115 -4 c101 -3 120 -7 160 -30 26 -15 111 -64 191 -110 79 -46 151 -87 159
-93 13 -8 253 -146 345 -199 17 -9 141 -81 277 -159 l246 -142 7 -41 c15 -88
102 -142 200 -125 36 7 74 7 108 1 30 -6 67 -6 89 -1 64 15 118 79 118 140 0
16 16 31 62 57 35 19 83 47 108 62 25 15 52 31 60 35 8 4 51 28 95 54 44 26
195 113 335 194 l255 147 97 0 c93 -1 99 0 162 35 44 25 62 39 54 45 -10 6
-10 8 0 8 7 0 59 27 114 60 l102 59 -79 3 -80 3 245 141 245 142 70 -2 c58 -1
75 3 101 21 49 35 67 70 68 133 1 62 -23 107 -74 137 l-29 17 0 966 0 967 39
37 c66 62 75 145 23 213 -33 45 -55 55 -146 64 -86 9 -65 -2 -402 194 -55 32
-117 68 -139 79 l-39 21 63 3 63 3 -69 40 c-158 93 -155 92 -229 94 -66 1 -76
5 -170 60 -55 32 -116 67 -135 78 -19 11 -150 86 -290 167 -242 141 -288 167
-422 242 -57 32 -58 34 -58 76 0 80 -56 146 -133 157 -58 8 -165 13 -170 8z"/>
</g>
</svg>
