<?xml version="1.0" encoding="UTF-8"?>
<svg width="156px" height="30px" viewBox="0 0 156 30" version="1.1" xmlns="http://www.w3.org/2000/svg" xmlns:xlink="http://www.w3.org/1999/xlink">
    <g stroke="none" stroke-width="1" fill="none" fill-rule="evenodd">
        <g id="logo-tierion" fill-rule="nonzero">
            <path d="M59.832,11.7108 L54.6792,11.7108 L54.6792,24.96 L52.788,24.96 L52.788,11.712 L47.6352,11.7984 L47.6352,10.116 L59.8344,10.0296 L59.8344,11.712 M67.026,10.0284 L68.9196,10.0284 L68.9196,24.96 L67.026,24.96 L67.026,10.0284 Z M87.6816,23.28 L87.6816,24.96 L77.5428,24.96 L77.5428,10.0284 L87.492,10.0284 L87.492,11.7108 L79.4364,11.7108 L79.4364,16.5492 L86.4408,16.5492 L86.4408,18.126 L79.4364,18.126 L79.4364,23.2788 L87.6816,23.2788 M95.316,24.9612 L95.316,10.0284 L101.7108,10.0284 C102.3708,10.0284 102.9768,10.164 103.53,10.4388 C104.074881,10.7042468 104.561207,11.0759276 104.9604,11.532 C105.36,11.988 105.672,12.4992 105.8964,13.068 C106.117443,13.6194346 106.231474,14.2079129 106.2324,14.802 C106.2324,15.3216 106.1604,15.822 106.0128,16.3068 C105.872715,16.7752317 105.659704,17.2186681 105.3816,17.6208 C105.110611,18.0103506 104.776405,18.3518574 104.3928,18.6312 C104.003185,18.9129473 103.564506,19.1196716 103.0992,19.2408 L106.7172,24.9612 L104.5716,24.9612 L101.1636,19.5972 L97.2096,19.5972 L97.2096,24.9612 L95.3172,24.9612 L95.316,24.9612 Z M97.2096,17.916 L101.7324,17.916 C102.1248,17.916 102.4788,17.832 102.7944,17.664 C103.11,17.496 103.38,17.268 103.6044,16.98 C103.8276,16.692 104.004,16.3596 104.13,15.9804 C104.256,15.6024 104.3196,15.21 104.3196,14.802 C104.3196,14.382 104.2452,13.986 104.0988,13.614 C103.958358,13.2547464 103.759699,12.9210799 103.5108,12.6264 C103.272318,12.3444964 102.978172,12.1148984 102.6468,11.952 C102.322778,11.7925419 101.966332,11.7100008 101.6052,11.7107943 L97.2096,11.7107943 L97.2096,17.9148 L97.2096,17.916 Z M114.1836,10.0284 L116.0772,10.0284 L116.0772,24.96 L114.1836,24.96 L114.1836,10.0284 Z M129.4968,25.068 C128.4444,25.068 127.488,24.8544 126.6252,24.426 C125.779573,24.0113152 125.025234,23.4319958 124.4064,22.722 C123.785298,22.0067434 123.30086,21.1834835 122.9772,20.2932 C122.642611,19.3981339 122.471101,18.450359 122.4708,17.4948 C122.4708,16.4988 122.6508,15.546 123.0072,14.6352 C123.351323,13.7454239 123.853842,12.9253743 124.4904,12.2148 C125.119577,11.5152184 125.88101,10.9470999 126.7308,10.5432 C127.607767,10.1266283 128.567966,9.91489206 129.5388,9.924 C130.59,9.924 131.5428,10.1436 132.3996,10.5852 C133.2552,11.0268 133.9908,11.6052 134.6076,12.3204 C135.22619,13.0381211 135.710697,13.861215 136.038,14.7504 C136.7208,16.5659363 136.709263,18.5696472 136.0056,20.3772 C135.664738,21.2622929 135.166282,22.0782799 134.5344,22.7856 C133.908309,23.4811606 133.150491,24.0456493 132.3048,24.4464 C131.427945,24.8634256 130.467732,25.0755752 129.4968,25.0668 L129.4968,25.068 Z M124.3848,17.496 C124.3848,18.252 124.5072,18.984 124.7532,19.692 C124.9992,20.4024 125.346,21.0288 125.7948,21.576 C126.238108,22.1185222 126.789903,22.5624108 127.4148,22.8792 C128.0448,23.202 128.7468,23.364 129.5172,23.364 C130.3176,23.364 131.0316,23.1924 131.6628,22.848 C132.284555,22.5128829 132.831646,22.0547962 133.2708,21.5016 C133.7148,20.9496 134.0508,20.3208 134.2812,19.6188 C134.753318,18.2155072 134.746143,16.6951739 134.2608,15.2964 C134.028784,14.6129393 133.672393,13.9782707 133.2096,13.4244 C132.7536,12.8844 132.2136,12.4536 131.5896,12.132 C130.948233,11.8051412 130.236994,11.6391717 129.5172,11.6484 C128.718,11.6484 128.0028,11.8164 127.3728,12.1524 C126.7416,12.4884 126.2052,12.9312 125.7636,13.4772 C125.315353,14.0358252 124.96998,14.6696859 124.7436,15.3492 C124.506854,16.039776 124.386022,16.7647701 124.386,17.4948 L124.3848,17.496 Z M144.8508,13.5612 L144.8508,24.9612 L142.9572,24.9612 L142.9572,10.0284 L144.4308,10.0284 L153.6852,21.66 L153.6852,10.0488 L155.5776,10.0488 L155.5776,24.9612 L153.9792,24.9612 L144.8508,13.5612" id="Shape" fill="#424242"></path>
            <path d="M25.4676,18.7764 C20.3379854,18.4142085 15.1892146,18.4142085 10.0596,18.7764 C9.8916,16.1604 9.8064,14.8536 9.636,12.24 C15.0472779,11.8583167 20.4787221,11.8583167 25.89,12.24 L25.4676,18.7764 M21.264,29.4192 C18.4644,29.286 17.0616,29.286 14.262,29.4192 L14.0736,23.5956 C17.0244,23.454 18.5016,23.4552 21.4536,23.5956 L21.264,29.4192 M0.0228,1.7184 C0.4848,4.8744 0.714,6.4536 1.17,9.6108 C1.713661,8.64349161 2.27212669,7.68457882 2.8452,6.7344 C13.0512,5.268 22.8348,5.2884 33.0348,6.7944 C33.4875556,7.72735411 33.9279939,8.66623567 34.356,9.6108 C34.812,6.4536 35.0424,4.8744 35.5032,1.7184 C23.508,-0.2928 12.0192,-0.2928 0.024,1.7184" id="Shape" fill="#F94081"></path>
        </g>
    </g>
</svg>