<?xml version="1.0" encoding="UTF-8"?>
<svg width="74px" height="73px" viewBox="0 0 74 73" version="1.1" xmlns="http://www.w3.org/2000/svg" xmlns:xlink="http://www.w3.org/1999/xlink">
    <!-- Generator: Sketch 64 (93537) - https://sketch.com -->
    <title>logo-pl</title>
    <desc>Created with Sketch.</desc>
    <g id="Page-1" stroke="none" stroke-width="1" fill="none" fill-rule="evenodd">
        <g id="logo-pl" fill="#252A2E">
            <path d="M34.1843393,53.7974132 C34.9026455,54.2121321 35.4849476,55.215914 35.4849476,56.0516174 L35.4849476,71.8024386 C35.4849476,72.6326823 34.9073691,72.9722961 34.1843393,72.5548966 L20.5571214,64.6880079 C19.8388153,64.2733353 19.2565131,63.2695537 19.2565131,62.4338037 L19.2565131,46.6821044 C19.2565131,45.8518144 19.8340917,45.5122003 20.5571214,45.9296464 L34.1843393,53.7974132 Z M54.749641,40.1931794 C54.7495947,41.0232458 54.1717626,42.0297239 53.4484624,42.4473045 L39.8161472,50.3176067 C39.0975724,50.7324593 38.5150524,50.4013578 38.5150524,49.5658794 L38.5150524,33.8193004 C38.5150524,32.9892803 39.0928842,31.9828025 39.816231,31.5651752 L53.4494243,23.693995 C54.1680454,23.2790961 54.7505191,23.6101974 54.7505191,24.4457223 L54.749641,40.1931794 Z M51.933764,19.574317 C52.6546455,19.9905971 52.6609532,20.6618154 51.9372931,21.0796216 L38.2981946,28.9541749 C37.5792622,29.3692515 36.4100006,29.3671388 35.6911059,28.9520717 L2.8077597,9.966262 C2.0868368,9.5500237 2.0805681,8.878766 2.8043192,8.4608679 L16.4451327,0.5845823 C17.1641554,0.1694143 18.3334566,0.171487 19.0523099,0.586596 L51.933764,19.574317 Z M16.2264084,60.6899932 C16.2264084,61.5146769 15.6489019,61.8497821 14.9259624,61.4323809 L1.3004459,53.5654606 C0.5822295,53.1507863 -3.55271368e-15,52.1373785 -3.55271368e-15,51.3071823 L-3.55271368e-15,13.3327401 C-3.55271368e-15,12.5002018 0.5863015,12.1637945 1.3050121,12.5787387 L34.1799355,31.5589201 C34.9006738,31.9750349 35.4849476,32.9799122 35.4849476,33.8155702 L35.4849476,49.5655365 C35.4849476,50.3957351 34.9085778,50.7360201 34.1914363,50.3220322 L17.5199197,40.6979804 C16.8055331,40.2855828 16.2264084,40.6166265 16.2264084,41.4444905 L16.2264084,60.6899932 Z M57.7663773,22.6942482 C57.7664525,21.869528 58.3442718,20.8673833 59.0675266,20.449802 L72.6989868,12.5794865 C73.4175165,12.1646332 74,12.505593 74,13.3358098 L74,51.3111997 C74,52.1437589 73.4136985,53.1571798 72.6949879,53.5721239 L39.8200645,72.5523054 C39.0993262,72.9684202 38.5150524,72.6381616 38.5150524,71.8024575 L38.5150524,56.051623 C38.5150524,55.2213786 39.0911497,54.2156993 39.8079522,53.8018242 L56.4715875,44.1803968 C57.1856363,43.7681117 57.7645479,42.7685011 57.7646234,41.9406006 L57.7663773,22.6942482 Z M41.3191202,9.9581298 C40.6002318,9.5430055 40.5954685,8.8727968 41.3190395,8.4550815 L54.9564579,0.5822405 C55.6753017,0.1672541 56.8360493,0.1645615 57.5596186,0.5823225 L71.1970046,8.4560229 C71.9158467,8.8710546 71.9206097,9.5412626 71.1970853,9.9590712 L57.560545,17.8336683 C56.8417474,18.2487473 55.6810001,18.2514405 54.9573843,17.8335863 L41.3191202,9.9581298 Z" id="Shape"></path>
        </g>
    </g>
</svg>