<?xml version="1.0" encoding="UTF-8"?>
<svg width="696px" height="723px" viewBox="0 0 696 723" version="1.1" xmlns="http://www.w3.org/2000/svg" xmlns:xlink="http://www.w3.org/1999/xlink">
    <!-- Generator: Sketch 64 (93537) - https://sketch.com -->
    <title>logo-chainsafe</title>
    <desc>Created with Sketch.</desc>
    <g id="Page-1" stroke="none" stroke-width="1" fill="none" fill-rule="evenodd">
        <g id="logo-chainsafe" transform="translate(0.000000, 3.000000)">
            <g id="g10" transform="translate(347.999982, 360.000018) scale(-1, 1) rotate(-180.000000) translate(-347.999982, -360.000018) translate(-0.000009, 0.000027)">
                <g id="g12" transform="translate(0.666667, 0.400000)">
                    <path d="M52.6039987,96.0586643 C26.8919993,96.0586643 6.11866651,76.0106648 6.11866651,51.1706654 C6.11866651,26.1839993 26.8919993,5.99199985 52.6039987,5.99199985 C64.6626651,5.99199985 75.9933314,10.6386664 84.5639979,18.3386662 L88.3426645,14.1279996 C78.8986647,5.41066653 65.9693317,0.0346666658 52.461332,0.0346666658 C23.5519994,0.0346666658 0.0173333329,22.8426661 0.0173333329,51.0239987 C0.0173333329,79.2066647 23.5519994,101.869331 52.461332,101.869331 C66.114665,101.869331 78.7533314,96.6386643 88.1946645,88.2133311 L84.5639979,83.5653312 C76.1386648,91.4079977 64.6626651,96.0586643 52.6039987,96.0586643" id="path14" fill="#100F0D" fill-rule="nonzero"></path>
                    <path d="M177.815996,46.3759988 L177.815996,0.181333329 L171.714662,0.181333329 L171.714662,45.2146655 C171.714662,60.7573318 162.563996,69.9106649 147.019996,69.9106649 C128.279997,69.4746649 117.38533,56.9813319 117.38533,37.2239991 L117.38533,0.181333329 L111.283997,0.181333329 L111.283997,107.970664 L117.38533,107.970664 L117.38533,56.1106653 C122.470664,68.8946649 133.218663,75.7199981 148.471996,76.0106648 C166.921329,76.0106648 177.815996,64.8253317 177.815996,46.3759988" id="path16" fill="#100F0D" fill-rule="nonzero"></path>
                    <path d="M254.077327,24.8759994 L254.077327,37.2239991 L227.637328,37.2239991 C212.818661,37.2239991 204.685328,32.1386659 204.685328,22.4079994 C204.685328,12.3826664 212.383995,5.55466653 224.731994,5.55466653 C238.822661,5.55466653 249.42666,11.6559997 254.077327,24.8759994 Z M254.221327,0.181333329 L254.077327,15.1426663 C247.683994,4.68399988 236.934661,0.0346666658 223.861328,0.0346666658 C208.895995,0.0346666658 198.873328,9.4773331 198.873328,22.2613328 C198.873328,34.9013325 209.623995,42.5999989 227.055994,42.5999989 L253.93066,42.5999989 L253.93066,50.0093321 C253.785327,62.7933318 246.377327,70.4919982 231.269328,70.4919982 C221.825328,70.4919982 213.835995,66.7133317 205.846662,60.6119985 L202.941328,65.2613317 C211.947995,71.7986649 220.663994,76.0106648 232.139994,76.0106648 C250.007994,76.0106648 259.74266,66.1319983 259.88666,50.4439987 L260.17866,0.181333329 L254.221327,0.181333329" id="path18" fill="#100F0D" fill-rule="nonzero"></path>
                    <path d="M293.869326,75.8653314 L293.869326,0.181333329 L287.914659,0.181333329 L287.914659,75.8653314 L293.869326,75.8653314 Z M296.047993,97.6559976 C296.047993,94.605331 293.725326,92.2826644 290.963993,92.2826644 C288.203993,92.2826644 285.879993,94.605331 285.879993,97.6559976 C285.879993,100.562664 288.203993,102.886664 290.963993,102.886664 C293.725326,102.886664 296.047993,100.562664 296.047993,97.6559976" id="path20" fill="#100F0D" fill-rule="nonzero"></path>
                    <path d="M390.618657,46.3759988 L390.618657,0.181333329 L384.517324,0.181333329 L384.517324,45.2146655 C384.517324,60.7573318 375.363991,69.9106649 359.821324,69.9106649 C342.387991,69.4746649 331.638658,58.5786652 330.331992,41.1453323 L330.331992,0.181333329 L324.230659,0.181333329 L324.230659,75.8653314 L330.331992,75.8653314 L330.331992,56.5453319 C335.415992,69.0373316 346.165325,75.7199981 361.273324,76.0106648 C379.723991,76.0106648 390.618657,64.8253317 390.618657,46.3759988" id="path22" fill="#100F0D" fill-rule="nonzero"></path>
                    <path d="M447.410655,95.6226643 C431.286656,95.6226643 420.825323,88.9399978 420.825323,78.335998 C420.825323,47.3933321 480.530655,63.3733317 480.241321,25.8933327 C480.241321,10.2039997 466.149322,0.0346666658 444.939989,0.0346666658 C431.429323,0.0346666658 417.629323,5.99199985 408.76799,14.7079996 L411.965323,20.0826662 C420.245323,11.513333 433.174656,6.28266651 445.083989,6.28266651 C462.518655,6.28266651 473.702655,13.8346663 473.702655,25.746666 C473.993321,57.5626652 414.289323,41.2933323 414.289323,77.9013314 C414.289323,92.5719977 427.653323,102.014664 447.699989,102.014664 C458.014655,102.014664 469.199988,98.6746642 476.754655,93.7346643 L473.993321,88.2133311 C466.439988,93.153331 456.126655,95.6226643 447.410655,95.6226643" id="path24" fill="#100F0D" fill-rule="nonzero"></path>
                    <path d="M553.886653,24.8759994 L553.886653,37.2239991 L527.446653,37.2239991 C512.629321,37.2239991 504.494654,32.1386659 504.494654,22.4079994 C504.494654,12.3826664 512.194654,5.55466653 524.54132,5.55466653 C538.631987,5.55466653 549.23732,11.6559997 553.886653,24.8759994 Z M554.030653,0.181333329 L553.886653,15.1426663 C547.49332,4.68399988 536.743987,0.0346666658 523.670654,0.0346666658 C508.705321,0.0346666658 498.683988,9.4773331 498.683988,22.2613328 C498.683988,34.9013325 509.431987,42.5999989 526.86532,42.5999989 L553.741319,42.5999989 L553.741319,50.0093321 C553.593319,62.7933318 546.187986,70.4919982 531.079987,70.4919982 C521.635987,70.4919982 513.64532,66.7133317 505.655987,60.6119985 L502.750654,65.2613317 C511.757321,71.7986649 520.47332,76.0106648 531.950653,76.0106648 C549.81732,76.0106648 559.551986,66.1319983 559.694653,50.4439987 L559.985319,0.181333329 L554.030653,0.181333329" id="path26" fill="#100F0D" fill-rule="nonzero"></path>
                    <path d="M595.277318,84.2933312 L595.277318,73.9773315 L618.665318,73.9773315 L618.665318,68.7466649 L595.277318,68.7466649 L595.277318,0.181333329 L589.321319,0.181333329 L589.321319,68.7466649 L579.734652,68.7466649 L579.734652,73.9773315 L589.321319,73.9773315 L589.321319,83.8546646 C589.321319,98.5266642 599.637318,108.261331 611.693318,108.115997 C617.213318,108.115997 622.878651,106.082664 627.090651,102.739997 L624.331984,97.7999976 C620.698651,100.562664 616.195985,102.303997 611.838651,102.303997 C602.541318,102.450664 595.277318,95.041331 595.277318,84.2933312" id="path28" fill="#100F0D" fill-rule="nonzero"></path>
                    <path d="M689.121316,41.7266656 C687.957316,58.8693319 676.771983,70.4919982 659.483984,70.4919982 C642.487984,70.4919982 630.139984,58.8693319 628.687984,41.7266656 L689.121316,41.7266656 Z M694.638649,36.3533324 L628.542651,36.3533324 C629.414651,17.9039996 642.197317,5.55466653 659.77465,5.55466653 C670.089317,5.55466653 679.24265,9.33199977 685.343983,16.0159996 L688.830649,12.0919997 C681.855983,4.53733322 671.54265,0.0346666658 659.483984,0.0346666658 C638.130651,0.0346666658 622.585318,15.7253329 622.585318,37.9506657 C622.585318,60.1773318 638.130651,76.0106648 659.483984,76.0106648 C681.711983,76.0106648 695.075983,59.7413318 694.638649,36.3533324" id="path30" fill="#100F0D" fill-rule="nonzero"></path>
                    <polyline id="path32" fill="#F2F031" fill-rule="nonzero" points="128.411997 584.883985 128.411997 415.321323 177.357329 443.579989 177.357329 556.054653 277.723993 609.774651 277.723993 664.815983 128.411997 584.883985"></polyline>
                    <polygon id="path34" stroke="#211D1D" stroke-width="6.80571984" stroke-linecap="round" stroke-linejoin="round" points="128.411997 584.883985 128.411997 415.321323 177.357329 443.579989 177.357329 556.054653 277.723993 609.774651 277.723993 664.815983"></polygon>
                    <polyline id="path36" fill="#F2F031" fill-rule="nonzero" points="566.219986 498.902654 566.219986 443.677322 423.379989 525.90932 423.135989 580.870652 566.219986 498.902654"></polyline>
                    <polygon id="path38" stroke="#211D1D" stroke-width="6.80571984" stroke-linecap="round" stroke-linejoin="round" points="566.219986 498.902654 566.219986 443.677322 423.379989 525.90932 423.135989 580.870652"></polygon>
                    <polyline id="path40" fill="#F2F031" fill-rule="nonzero" points="566.219986 443.677322 566.219986 498.902654 615.039985 524.871987 615.039985 470.002655 566.219986 443.677322"></polyline>
                    <polygon id="path42" stroke="#211D1D" stroke-width="6.80571984" stroke-linecap="round" stroke-linejoin="round" points="566.219986 443.677322 566.219986 498.902654 615.039985 524.871987 615.039985 470.002655"></polygon>
                    <polyline id="path44" fill="#F2F031" fill-rule="nonzero" points="424.826656 579.779986 316.506659 521.403987 316.519992 466.443988 425.063989 524.34132 424.826656 579.779986"></polyline>
                    <polygon id="path46" stroke="#211D1D" stroke-width="6.80571984" stroke-linecap="round" stroke-linejoin="round" points="424.826656 579.779986 316.506659 521.403987 316.519992 466.443988 425.063989 524.34132"></polygon>
                    <polyline id="path48" fill="#F2F031" fill-rule="nonzero" points="316.506659 521.403987 424.826656 579.779986 566.219986 498.902654 615.039985 524.871987 277.517326 719.165315 79.4666647 613.141318 128.419997 584.883985 277.723993 664.815983 373.567991 609.642651 264.805327 551.20532 316.506659 521.403987 264.805327 551.20532 264.805327 436.014656 460.835988 324.035992 516.031987 353.309325 316.519992 466.443988 316.506659 521.403987"></polyline>
                    <polygon id="path50" stroke="#211D1D" stroke-width="6.80571984" stroke-linecap="round" stroke-linejoin="round" points="316.506659 521.403987 424.826656 579.779986 566.219986 498.902654 615.039985 524.871987 277.517326 719.165315 79.4666647 613.141318 128.419997 584.883985 277.723993 664.815983 373.567991 609.642651 264.805327 551.20532 316.506659 521.403987 264.805327 551.20532 264.805327 436.014656 460.835988 324.035992 516.031987 353.309325 316.519992 466.443988"></polygon>
                    <polyline id="path52" fill="#F2F031" fill-rule="nonzero" points="419.97199 193.206662 79.4666647 387.574657 79.4666647 613.141318 128.22933 584.883985 128.22933 417.166656 419.97199 249.29466 419.97199 193.206662"></polyline>
                    <polygon id="path54" stroke="#211D1D" stroke-width="6.80571984" stroke-linecap="round" stroke-linejoin="round" points="419.97199 193.206662 79.4666647 387.574657 79.4666647 613.141318 128.22933 584.883985 128.22933 417.166656 419.97199 249.29466"></polygon>
                    <polyline id="path56" fill="#F2F031" fill-rule="nonzero" points="615.039985 353.539991 419.97199 249.29466 419.97199 193.206662 615.039985 297.625326 615.039985 353.539991 369.009324 494.483988 316.519992 466.443988 516.031987 353.309325 421.481323 303.163992 277.461326 386.21199 177.365329 443.587989 128.22933 417.166656 419.97199 249.29466"></polyline>
                    <polyline id="path58" stroke="#211D1D" stroke-width="6.80571984" stroke-linecap="round" stroke-linejoin="round" points="615.039985 353.539991 419.97199 249.29466 419.97199 193.206662 615.039985 297.625326 615.039985 353.539991 369.009324 494.483988 316.519992 466.443988 516.031987 353.309325 421.481323 303.163992 277.461326 386.21199 177.365329 443.587989 128.22933 417.166656 419.97199 249.29466"></polyline>
                    <polyline id="path60" fill="#F2F031" fill-rule="nonzero" points="277.723993 609.774651 324.003992 583.011985 373.567991 609.642651 277.723993 664.815983 277.723993 609.774651"></polyline>
                    <polygon id="path62" stroke="#211D1D" stroke-width="6.80571984" stroke-linecap="round" stroke-linejoin="round" points="277.723993 609.774651 324.003992 583.011985 373.567991 609.642651 277.723993 664.815983"></polygon>
                </g>
            </g>
        </g>
    </g>
</svg>