<?xml version="1.0" encoding="UTF-8"?>
<svg width="188px" height="36px" viewBox="0 0 188 36" version="1.1" xmlns="http://www.w3.org/2000/svg" xmlns:xlink="http://www.w3.org/1999/xlink">
    <!-- Generator: Sketch 44.1 (41455) - http://www.bohemiancoding.com/sketch -->
    <title>Imported Layers Copy</title>
    <desc>Created with Sketch.</desc>
    <defs></defs>
    <g id="Page-1" stroke="none" stroke-width="1" fill="none" fill-rule="evenodd">
        <g id="Badges" transform="translate(-527.000000, -378.000000)" fill="#424242">
            <g id="Imported-Layers-Copy" transform="translate(527.000000, 378.000000)">
                <polyline id="Fill-1" points="72.1064494 14.148 65.8961124 14.148 65.8961124 30.1574118 63.6152921 30.1574118 63.6152921 14.148 57.404427 14.2533529 57.404427 12.2204118 72.1064494 12.1150588 72.1064494 14.148"></polyline>
                <polygon id="Fill-2" points="80.775573 12.1150588 83.0569213 12.1150588 83.0569213 30.1574118 80.775573 30.1574118"></polygon>
                <polyline id="Fill-3" points="105.667618 28.1244706 105.667618 30.1574118 93.4497303 30.1574118 93.4497303 12.1150588 105.439483 12.1150588 105.439483 14.148 95.7310787 14.148 95.7310787 19.9932353 104.172067 19.9932353 104.172067 21.8985882 95.7310787 21.8985882 95.7310787 28.1244706 105.667618 28.1244706"></polyline>
                <path d="M114.869056,30.1574118 L114.869056,12.1150588 L122.574416,12.1150588 C123.368663,12.1150588 124.100067,12.2802353 124.767573,12.6111176 C125.434551,12.9409412 126.009112,13.3814118 126.49073,13.9325294 C126.972348,14.4825882 127.348876,15.1009412 127.619258,15.7875882 C127.88964,16.4731765 128.024831,17.172 128.024831,17.8835294 C128.024831,18.5114118 127.936112,19.116 127.758674,19.7004706 C127.581236,20.2854706 127.327225,20.8148824 126.998225,21.2887059 C126.668169,21.7630588 126.271045,22.1696471 125.807382,22.509 C125.342135,22.8478235 124.821966,23.0929412 124.247404,23.2459412 L128.607315,30.1574118 L126.022843,30.1574118 L121.91536,23.6774118 L117.150404,23.6774118 L117.150404,30.1574118 L114.869056,30.1574118 L114.869056,30.1574118 Z M117.150404,21.6444706 L122.600292,21.6444706 C123.072933,21.6444706 123.499629,21.5428235 123.880382,21.3405882 C124.261135,21.1367647 124.58591,20.8614706 124.856292,20.5141765 C125.126146,20.1668824 125.33791,19.7645294 125.490528,19.3065882 C125.64209,18.8497059 125.718135,18.3758824 125.718135,17.8835294 C125.718135,17.3758235 125.629416,16.8972353 125.452506,16.4482941 C125.275067,15.9998824 125.037427,15.6017647 124.742753,15.2544706 C124.446494,14.9066471 124.100067,14.6361176 123.702944,14.4402353 C123.30582,14.2459412 122.887045,14.148 122.447674,14.148 L117.150404,14.148 L117.150404,21.6444706 L117.150404,21.6444706 Z" id="Fill-4"></path>
                <polygon id="Fill-5" points="137.606494 12.1150588 139.887843 12.1150588 139.887843 30.1574118 137.606494 30.1574118"></polygon>
                <path d="M156.060067,30.2844706 C154.792124,30.2844706 153.639303,30.0271765 152.599494,29.5099412 C151.560742,28.9932353 150.668798,28.3076471 149.925775,27.4515882 C149.182225,26.5960588 148.607663,25.6182353 148.202618,24.5170588 C147.795989,23.4158824 147.59373,22.2887647 147.59373,21.1367647 C147.59373,19.9339412 147.809191,18.7824706 148.239584,17.6812941 C148.670506,16.5795882 149.266719,15.606 150.027169,14.7578824 C150.78709,13.9108235 151.687483,13.2379412 152.726236,12.7381765 C153.766045,12.2378824 154.894045,11.9890588 156.110236,11.9890588 C157.37818,11.9890588 158.527303,12.2553529 159.558663,12.789 C160.588966,13.3226471 161.475629,14.0214706 162.219708,14.8849412 C162.963258,15.7494706 163.53782,16.7278235 163.942865,17.8205294 C164.348438,18.9127059 164.551753,20.0271176 164.551753,21.1616471 C164.551753,22.365 164.335764,23.517 163.904843,24.6181765 C163.474978,25.7193529 162.882461,26.6892353 162.130989,27.5278235 C161.378989,28.3664118 160.483348,29.0355882 159.444067,29.5348235 C158.404258,30.0351176 157.276787,30.2844706 156.060067,30.2844706 L156.060067,30.2844706 Z M149.900427,21.1367647 C149.900427,22.0515882 150.047764,22.9367647 150.343494,23.7917647 C150.639753,24.6483529 151.057472,25.4059412 151.598764,26.0666471 C152.139528,26.7273529 152.790135,27.2530588 153.550584,27.6416471 C154.310506,28.0312941 155.155449,28.2266471 156.085416,28.2266471 C157.04918,28.2266471 157.909966,28.0191176 158.670416,27.6035294 C159.431393,27.1884706 160.077247,26.6468824 160.609562,25.9777059 C161.142933,25.3090588 161.547978,24.5509412 161.826281,23.7028235 C162.105112,22.8562941 162.245584,22.0002353 162.245584,21.1367647 C162.245584,20.2214118 162.096663,19.3362353 161.801989,18.4812353 C161.50573,17.6262353 161.08273,16.8712941 160.534045,16.2190588 C159.984303,15.5673529 159.333697,15.0464118 158.581697,14.6567647 C157.829697,14.2665882 156.997427,14.0722941 156.085416,14.0722941 C155.12218,14.0722941 154.259809,14.2750588 153.499888,14.6821765 C152.739966,15.0887647 152.093056,15.6224118 151.560742,16.2831176 C151.028427,16.9438235 150.618101,17.6977059 150.331348,18.5442353 C150.043539,19.3923529 149.900427,20.2558235 149.900427,21.1367647 L149.900427,21.1367647 Z" id="Fill-6"></path>
                <polyline id="Fill-7" points="174.563809 16.3842353 174.563809 30.1574118 172.281933 30.1574118 172.281933 12.1150588 174.057371 12.1150588 185.210101 26.1682941 185.210101 12.141 187.491449 12.141 187.491449 30.1574118 185.564978 30.1574118 174.563809 16.3842353"></polyline>
                <path d="M30.6915281,22.6852941 C24.4299663,22.2469412 18.3849213,22.2469412 12.1233596,22.6837059 C11.9195169,19.5252353 11.8175955,17.946 11.6132247,14.7880588 C18.218573,14.3264118 24.5963146,14.3274706 31.2011348,14.7880588 C30.9972921,17.946 30.8953708,19.5268235 30.6915281,22.6852941" id="Fill-8"></path>
                <path d="M25.6260899,35.5420588 C22.2521236,35.3811176 20.5617079,35.3816471 17.1877416,35.5425882 C17.0974382,32.7277059 17.0514944,31.3205294 16.9606629,28.5061765 C20.5162921,28.3362353 22.2975393,28.3367647 25.8531685,28.5067059 C25.7623371,31.3205294 25.7174494,32.7271765 25.6260899,35.5420588" id="Fill-9"></path>
                <path d="M0.0274606742,2.07635294 C0.583539326,5.88970588 0.860258427,7.79664706 1.40947191,11.6115882 C2.19791011,10.2134118 2.60189888,9.51882353 3.42941573,8.13547059 C15.7286292,6.36511765 27.518236,6.38947059 39.8105843,8.20747059 C40.4638315,9.56435294 40.7827978,10.2457059 41.4038315,11.6115882 C41.9530449,7.79664706 42.2302921,5.88970588 42.7863708,2.07635294 C28.3304382,-0.353647059 14.4833933,-0.353647059 0.0274606742,2.07635294" id="Fill-10"></path>
            </g>
        </g>
    </g>
</svg>