<svg id="Calque_1" data-name="Calque 1" xmlns="http://www.w3.org/2000/svg" viewBox="0 0 149.59 118.61"><defs><style>.cls-1{fill:#111111;}.cls-2{fill:#a0c3d2;}.cls-3{fill:#fdcba3;}.cls-4{fill:#faac71;}.cls-5{fill:#0091aa;}</style></defs><title>logo_c4dt_1_cmyk</title><path class="cls-1" d="M86.75,81.77v-.13c0-3.12,1.94-5.23,4.66-5.23a4.31,4.31,0,0,1,3.31,1.36l-1.28,1.65a2.86,2.86,0,0,0-2.1-1c-1.38,0-2.4,1.28-2.4,3.28v0c0,2.05,1.06,3.3,2.43,3.3a2.92,2.92,0,0,0,2.12-1.08l1.28,1.52A4.49,4.49,0,0,1,91.28,87C88.58,87,86.75,84.92,86.75,81.77Z"></path><path class="cls-1" d="M95.26,83v-.13c0-2.34,1.45-4,3.44-4,2.25,0,3.35,1.83,3.35,4.19,0,.12,0,.37,0,.67h-4.7A1.68,1.68,0,0,0,99,85.27a2.28,2.28,0,0,0,1.64-.78l1.08,1.27A3.72,3.72,0,0,1,95.26,83ZM100,82.3c-.08-1.09-.55-1.76-1.33-1.76s-1.27.64-1.39,1.76Z"></path><path class="cls-1" d="M103.27,79h2.08V80a2.42,2.42,0,0,1,2-1.2c1.47,0,2.33,1,2.33,2.66v5.36h-2.09V82.1c0-.93-.41-1.4-1.12-1.4s-1.15.47-1.15,1.4v4.74h-2.08Z"></path><path class="cls-1" d="M111.66,84.87V80.73h-.8V79h.8V77h2.09v2h1.55v1.77h-1.55v3.72c0,.45.2.67.64.67a1.9,1.9,0,0,0,.9-.22v1.67a3.07,3.07,0,0,1-1.54.41C112.54,87,111.66,86.51,111.66,84.87Z"></path><path class="cls-1" d="M116.13,83v-.13c0-2.34,1.45-4,3.44-4,2.25,0,3.35,1.83,3.35,4.19,0,.12,0,.37,0,.67h-4.7a1.68,1.68,0,0,0,1.71,1.59,2.28,2.28,0,0,0,1.64-.78l1.08,1.27A3.66,3.66,0,0,1,119.82,87,3.7,3.7,0,0,1,116.13,83Zm4.78-.69c-.09-1.09-.56-1.76-1.34-1.76s-1.27.64-1.38,1.76Z"></path><path class="cls-1" d="M124.27,79h2.09v1.4a2.07,2.07,0,0,1,2.13-1.53V81.1h-.09c-1.28,0-2,.79-2,2.44v3.3h-2.09Z"></path><path class="cls-1" d="M87.66,96.46h-.79v-1.7h.79v-.47a2.42,2.42,0,0,1,.59-1.77A2.36,2.36,0,0,1,90,91.93a4.3,4.3,0,0,1,1.3.18v1.72a2.64,2.64,0,0,0-.77-.13c-.48,0-.76.25-.76.81v.25h1.53v1.7H89.75v6.18H87.66Z"></path><path class="cls-1" d="M91.81,98.8v-.16a3.77,3.77,0,0,1,3.72-4,3.72,3.72,0,0,1,3.69,4v.17a3.72,3.72,0,1,1-7.41,0Zm5.35,0v-.1c0-1.28-.65-2.25-1.65-2.25s-1.64,1-1.64,2.23v.11c0,1.26.66,2.25,1.66,2.25S97.16,100.05,97.16,98.77Z"></path><path class="cls-1" d="M100.57,94.76h2.09v1.39a2.07,2.07,0,0,1,2.13-1.52v2.26h-.08c-1.28,0-2,.79-2,2.44v3.31h-2.09Z"></path><path class="cls-1" d="M108.42,92.35h3.48a4.71,4.71,0,0,1,4.91,5.07v.13a4.73,4.73,0,0,1-4.91,5.09h-3.48Zm2.13,1.92v6.44h1.33c1.62,0,2.72-1.13,2.72-3.17v-.08c0-2-1.1-3.19-2.72-3.19Z"></path><path class="cls-1" d="M118.44,92h2.17v1.9h-2.17Zm0,2.74h2.09v7.88h-2.09Z"></path><path class="cls-1" d="M122,104.23l.64-1.62a4.65,4.65,0,0,0,2.24.57c1.31,0,1.94-.6,1.94-1.86v-.5a2.64,2.64,0,0,1-2.21,1.23c-1.56,0-2.94-1.22-2.94-3.7v0c0-2.48,1.4-3.69,2.94-3.69a2.64,2.64,0,0,1,2.19,1.16v-1h2.09v6.44A3.77,3.77,0,0,1,128,104a4.16,4.16,0,0,1-3,.94A7,7,0,0,1,122,104.23Zm4.83-5.9h0c0-1.17-.66-1.92-1.54-1.92s-1.53.75-1.53,1.92h0c0,1.19.65,1.93,1.53,1.93S126.82,99.51,126.82,98.33Z"></path><path class="cls-1" d="M130.58,92h2.18v1.9h-2.18Zm0,2.74h2.09v7.88h-2.09Z"></path><path class="cls-1" d="M135,100.67V96.52h-.79V94.76H135V92h2.09v2.74h1.56v1.76h-1.56v3.72c0,.46.2.68.65.68a2,2,0,0,0,.89-.22v1.66a3.07,3.07,0,0,1-1.54.41C135.92,102.77,135,102.3,135,100.67Z"></path><path class="cls-1" d="M114.81,116.51v-4.15H114V110.6h.8v-2.74h2.09v2.74h1.55v1.76H116.9v3.72c0,.46.2.68.64.68a2,2,0,0,0,.9-.22v1.66a3.07,3.07,0,0,1-1.54.41C115.69,118.61,114.81,118.14,114.81,116.51Z"></path><path class="cls-1" d="M139.61,100.39v-.09c0-1.73,1.13-2.51,2.75-2.51a4.33,4.33,0,0,1,1.65.32v-.24c0-.91-.55-1.38-1.49-1.38a4.53,4.53,0,0,0-1.8.44l-.58-1.63a5.68,5.68,0,0,1,2.69-.63A2.85,2.85,0,0,1,146,97.86v4.78h-2v-.85a2.43,2.43,0,0,1-2,1A2.25,2.25,0,0,1,139.61,100.39Zm4.43-.34v-.66a2.79,2.79,0,0,0-1.16-.25c-.77,0-1.25.38-1.25,1.1v0a.93.93,0,0,0,1,1A1.26,1.26,0,0,0,144,100.05Z"></path><path class="cls-1" d="M147.5,92h2.09v10.62H147.5Z"></path><path class="cls-1" d="M89.46,110.33H86.87v-2.47h7.29v2.47H91.57v8.13H89.46Z"></path><path class="cls-1" d="M94.81,110.55H96.9V112A2.06,2.06,0,0,1,99,110.45v2.26h-.09c-1.28,0-2,.8-2,2.45v3.3H94.81Z"></path><path class="cls-1" d="M100,116v-5.4h2.07v4.78c0,.93.41,1.4,1.12,1.4s1.14-.47,1.14-1.4v-4.78h2.09v7.91h-2.09V117.4a2.37,2.37,0,0,1-2,1.21C100.86,118.61,100,117.58,100,116Z"></path><path class="cls-1" d="M107.52,117.52l.91-1.47a3.66,3.66,0,0,0,2.11.88c.58,0,.83-.28.83-.6v0c0-.45-.58-.65-1.44-1-1.12-.49-2.07-1.05-2.07-2.38v0a2.44,2.44,0,0,1,2.7-2.42,4.67,4.67,0,0,1,2.61.86l-.84,1.5a3.54,3.54,0,0,0-1.79-.68c-.5,0-.77.25-.77.56v0c0,.41.59.65,1.43,1,1.14.54,2.09,1.12,2.09,2.37v0c0,1.64-1.21,2.46-2.78,2.46A4.79,4.79,0,0,1,107.52,117.52Z"></path><path class="cls-1" d="M79,23.7V15.81L93.48,0h9.19V15.81h7.89V23.7Zm15.8-7.89V8.74l-7.19,7.09Z"></path><path class="cls-1" d="M97.92,71.07h-11V47.38h7.9V63.13H98c7.06,0,12.53-4.93,12.53-11.77v-.11c0-6.84-5.47-11.76-12.53-11.76H86.87V31.59h11c12.14,0,20.4,8.91,20.4,19.78v.11C118.29,62.34,110.06,71.07,97.92,71.07Z"></path><path class="cls-1" d="M57.16,19.47v-.11c0-6.62,4.77-11.53,11.28-11.53a10.93,10.93,0,0,1,5.71,1.56l5.5-6S76,0,68.49,0C56.63,0,48.86,8.49,48.86,19.47v.11c0,11.09,7.94,19.86,19.3,19.9H79V31.59H68.44C61.82,31.59,57.16,26.09,57.16,19.47Z"></path><path class="cls-1" d="M117.5,31.59a2.39,2.39,0,0,1,.23.22,26.77,26.77,0,0,1,5.37,7.67h3.25V71.07h7.9V39.48h7.89V31.59Z"></path><path class="cls-2" d="M5.3,59.24A39.43,39.43,0,0,0,39.48,79V39.5A39.43,39.43,0,0,0,5.3,59.24Z"></path><path class="cls-3" d="M73.67,59.24A39.46,39.46,0,0,1,39.48,79V39.5A39.46,39.46,0,0,1,73.67,59.24Z"></path><path class="cls-4" d="M39.48,79v39.48A39.48,39.48,0,0,0,73.67,59.24,39.46,39.46,0,0,1,39.48,79Z"></path><path class="cls-5" d="M0,39.5A39.31,39.31,0,0,0,5.29,59.24,39.46,39.46,0,0,1,39.48,39.5V0A39.49,39.49,0,0,0,0,39.5Z"></path></svg>