<svg width="64" height="68" xmlns="http://www.w3.org/2000/svg"><g fill="#FFA729" fill-rule="nonzero"><path d="M46.331 47.834c4.155 0 6.058-1.576 6.93-3.083 1.677-2.898.499-6.671-3.507-11.21-2.219-2.512-5.564-5.8-7.836-7.434a53.179 53.179 0 0 0-.586-4.117c.648-.16 1.285-.297 1.897-.407 3.789-.667 5.978-.118 6.463.721.327.567.077 1.742-.687 3.225-.655 1.272-1.247 1.978-1.434 2.186a46.588 46.588 0 0 1 2.935 2.89c.348-.368 1.235-1.392 2.165-3.195 1.481-2.872 1.68-5.28.592-7.161-1.103-1.908-3.863-3.925-10.748-2.715a32.26 32.26 0 0 0-2.114.451C38.715 12.138 35.892 8 31.994 8c-2.266 0-5.472 1.445-7.884 8.36-.024.077-.616 1.89-1.077 3.933-.47 2.08-.907 4.313-1.302 6.648a52.927 52.927 0 0 0-3.522 2.74c-3.244-3.345-4.61-6.181-3.92-7.374.417-.718 1.723-1.314 3.7-1.03 1.14.164 1.904.345 2.23.431.304-1.551.706-3.032.985-3.993a25.883 25.883 0 0 0-2.626-.507c-3.473-.498-6.483.667-7.857 3.043-1.95 3.37.23 7.88 4.464 12.258a30.64 30.64 0 0 0-1.448 1.602c-4.49 5.342-4.12 8.736-3.016 10.64 1.222 2.11 3.75 3.192 7.117 3.192 2.275 0 4.936-.495 7.83-1.504 1.389-.483 4.702-1.818 6.266-2.456 1.523.7 3.03 1.314 4.503 1.836-1.288 4.47-3.066 7.07-4.446 7.07-1.095 0-2.412-1.596-3.444-4.168a13.662 13.662 0 0 1-.19-.54c-1.398.549-2.84.993-3.911 1.299.092.279.193.573.273.768C26.96 55.828 29.91 57 31.991 57c3.901 0 6.724-4.138 8.407-9.985.723.178 1.427.33 2.114.45 1.449.256 2.713.369 3.819.369zm-19.28-26.636c.413-1.836.96-3.521.96-3.521 1.342-3.842 2.966-5.563 3.98-5.563 1.38 0 3.158 2.6 4.446 7.07-3.102 1.097-6.364 2.61-9.573 4.458-.128.074-.253.148-.378.223.181-.914.372-1.804.565-2.667zm-2.745 21.361c-5.734 1.997-9.365 1.261-10.016.137-.485-.84.13-3.002 2.605-5.945.401-.478.839-.958 1.303-1.436 2.563 2.175 5.543 4.245 8.666 6.046l.235.133a86.753 86.753 0 0 1-2.793 1.065zm4.619-4.758c-2.998-1.726-5.562-3.542-7.676-5.304 2.227-1.851 4.832-3.655 7.676-5.292 2.843-1.638 5.71-2.987 8.43-3.984.477 2.708.768 5.832.768 9.282s-.291 6.577-.767 9.282c-2.721-.997-5.588-2.346-8.431-3.984zm13.317-6.057a65.674 65.674 0 0 1 4.42 4.515c3.009 3.408 3.538 5.562 3.03 6.437-.485.84-2.674 1.385-6.463.72a27.67 27.67 0 0 1-1.897-.406c.607-3.302.916-6.912.916-10.51-.003-.25-.003-.504-.006-.756z"/><path d="M32 28c-2.206 0-4 1.794-4 4s1.794 4 4 4 4-1.794 4-4-1.794-4-4-4z"/><path d="M64 32.13C64 14.352 49.545-.096 31.819 0 15.209.091 1.152 13.325.07 29.97c-.772 11.906 4.883 22.994 14.817 29.317l-.011 4.644-10.806.036v-7.39H.02V68h18.91l.013-8.786c.003-1.36-.7-2.616-1.877-3.364C8.92 50.68 4.055 41.815 4.055 32.13c0-15.417 12.45-27.97 27.784-28.06 15.025-.089 27.597 12.023 28.094 27.1.333 10.055-4.578 19.34-12.993 24.68-1.178.748-1.88 2.005-1.877 3.364l.02 8.786h18.902V56.578h-4.052l.035 7.353-10.84.036-.013-4.683C58.433 53.364 64 43.215 64 32.13z"/></g></svg>