<?xml version="1.0" encoding="UTF-8"?>
<svg width="183px" height="53px" viewBox="0 0 183 53" version="1.1" xmlns="http://www.w3.org/2000/svg" xmlns:xlink="http://www.w3.org/1999/xlink">
    <!-- Generator: Sketch 64 (93537) - https://sketch.com -->
    <title>epfl-logo-new</title>
    <desc>Created with Sketch.</desc>
    <g id="Page-1" stroke="none" stroke-width="1" fill="none" fill-rule="evenodd">
        <g id="epfl-logo-new" transform="translate(0.000000, -1.000000)" fill="#FF0000" fill-rule="nonzero">
            <polygon id="Path" points="0 22.6 11.43 22.6 11.43 10.8 38.34 10.8 38.34 1 0 1"></polygon>
            <polygon id="Path" points="0 54 38.34 54 38.34 44.2 11.43 44.2 11.43 32.4 0 32.4"></polygon>
            <rect id="Rectangle" x="11.43" y="22.6" width="24.61" height="9.8"></rect>
            <path d="M86,5.87 C84.3742429,4.30921797 82.4392765,3.10667722 80.32,2.34 C77.591839,1.37971673 74.7112751,0.925604294 71.82,1 L48.14,1 L48.14,54 L59.57,54 L59.57,32.4 L71.82,32.4 C74.6978911,32.4695228 77.5644616,32.0154798 80.28,31.06 C82.4135276,30.2983326 84.3625576,29.0955221 86,27.53 C87.4226607,26.1218876 88.5125683,24.4135685 89.19,22.53 C90.5231746,18.771384 90.5231746,14.668616 89.19,10.91 C88.5151359,9.01346598 87.4252829,7.29156655 86,5.87 Z M78,19.73 C77.4137564,20.5141364 76.6354193,21.1340509 75.74,21.53 C74.6986096,21.9751763 73.5963568,22.2616946 72.47,22.38 C71.1889435,22.5310654 69.8999248,22.6045328 68.61,22.6 L59.57,22.6 L59.57,10.8 L68.62,10.8 C69.9099248,10.7954672 71.1989435,10.8689346 72.48,11.02 C73.6078075,11.1364294 74.7108352,11.4265223 75.75,11.88 C76.6432414,12.2702837 77.4188984,12.8873619 78,13.67 C78.599401,14.5526325 78.900752,15.603857 78.86,16.67 C78.9138078,17.7563911 78.6118786,18.8306972 78,19.73 Z" id="Shape"></path>
            <polygon id="Path" points="155.47 44.2 155.47 1 144.04 1 144.04 54 182.38 54 182.38 44.2"></polygon>
            <polygon id="Path" points="97.42 22.6 108.85 22.6 108.85 10.8 135.76 10.8 135.76 1 97.42 1"></polygon>
            <rect id="Rectangle" x="97.42" y="32.4" width="11.43" height="21.6"></rect>
            <rect id="Rectangle" x="108.85" y="22.6" width="24.61" height="9.8"></rect>
        </g>
    </g>
</svg>