<?xml version="1.0" encoding="UTF-8"?>
<svg width="719px" height="240px" viewBox="0 0 719 240" version="1.1" xmlns="http://www.w3.org/2000/svg" xmlns:xlink="http://www.w3.org/1999/xlink">
    <!-- Generator: Sketch 64 (93537) - https://sketch.com -->
    <title>logo-cloudflare</title>
    <desc>Created with Sketch.</desc>
    <g id="Page-1" stroke="none" stroke-width="1" fill="none" fill-rule="evenodd">
        <g id="logo-cloudflare" fill-rule="nonzero">
            <path d="M712.6,194.9 C709.2,194.9 706.5,192.2 706.5,188.8 C706.5,185.5 709.2,182.7 712.6,182.7 C715.9,182.7 718.7,185.4 718.7,188.8 C718.7,192.1 715.9,194.9 712.6,194.9 M712.6,183.9 C709.9,183.9 707.7,186.1 707.7,188.8 C707.7,191.5 709.9,193.7 712.6,193.7 C715.3,193.7 717.5,191.5 717.5,188.8 C717.5,186.1 715.3,183.9 712.6,183.9 M715.7,192 L714.3,192 L713.1,189.7 L711.5,189.7 L711.5,192 L710.2,192 L710.2,185.3 L713.4,185.3 C714.8,185.3 715.7,186.2 715.7,187.5 C715.7,188.5 715.1,189.2 714.3,189.5 L715.7,192 Z M713.3,188.5 C713.8,188.5 714.3,188.2 714.3,187.5 C714.3,186.7 713.9,186.5 713.3,186.5 L711.3,186.5 L711.3,188.5 L713.3,188.5 L713.3,188.5 Z" id="Shape" fill="#404041"></path>
            <polygon id="Path" fill="#404041" points="77.1 182.1 92.7 182.1 92.7 224.6 119.8 224.6 119.8 238.2 77.1 238.2"></polygon>
            <path d="M135.9,210.3 L135.9,210.1 C135.9,194 148.9,180.9 166.2,180.9 C183.5,180.9 196.3,193.8 196.3,209.9 L196.3,210.1 C196.3,226.2 183.3,239.3 166,239.3 C148.7,239.3 135.9,226.4 135.9,210.3 M180.5,210.3 L180.5,210.1 C180.5,202 174.7,195 166.1,195 C157.6,195 151.9,201.9 151.9,210 L151.9,210.2 C151.9,218.3 157.7,225.3 166.2,225.3 C174.8,225.3 180.5,218.4 180.5,210.3" id="Shape" fill="#404041"></path>
            <path d="M215.4,213.6 L215.4,182.1 L231.2,182.1 L231.2,213.3 C231.2,221.4 235.3,225.2 241.5,225.2 C247.7,225.2 251.8,221.5 251.8,213.7 L251.8,182.1 L267.6,182.1 L267.6,213.2 C267.6,231.3 257.3,239.2 241.3,239.2 C225.4,239.2 215.4,231.2 215.4,213.6" id="Path" fill="#404041"></path>
            <path d="M291.4,182.1 L313,182.1 C333,182.1 344.7,193.6 344.7,209.8 L344.7,210 C344.7,226.2 332.9,238.2 312.7,238.2 L291.4,238.2 L291.4,182.1 L291.4,182.1 Z M313.3,224.4 C322.6,224.4 328.8,219.3 328.8,210.2 L328.8,210 C328.8,201 322.6,195.8 313.3,195.8 L307,195.8 L307,224.3 L313.3,224.3 L313.3,224.4 Z" id="Shape" fill="#404041"></path>
            <polygon id="Path" fill="#404041" points="367.3 182.1 412.2 182.1 412.2 195.7 382.8 195.7 382.8 205.3 409.4 205.3 409.4 218.2 382.8 218.2 382.8 238.2 367.3 238.2"></polygon>
            <polygon id="Path" fill="#404041" points="433.8 182.1 449.3 182.1 449.3 224.6 476.5 224.6 476.5 238.2 433.8 238.2"></polygon>
            <path d="M517.1,181.7 L532.1,181.7 L556,238.2 L539.3,238.2 L535.2,228.2 L513.6,228.2 L509.6,238.2 L493.3,238.2 L517.1,181.7 Z M530.8,216.1 L524.6,200.2 L518.3,216.1 L530.8,216.1 Z" id="Shape" fill="#404041"></path>
            <path d="M576,182.1 L602.5,182.1 C611.1,182.1 617,184.3 620.8,188.2 C624.1,191.4 625.8,195.7 625.8,201.3 L625.8,201.5 C625.8,210.1 621.2,215.8 614.3,218.7 L627.7,238.3 L609.7,238.3 L598.4,221.3 L591.6,221.3 L591.6,238.3 L576,238.3 L576,182.1 L576,182.1 Z M601.8,209 C607.1,209 610.1,206.4 610.1,202.4 L610.1,202.2 C610.1,197.8 606.9,195.6 601.7,195.6 L591.5,195.6 L591.5,209 L601.8,209 L601.8,209 Z" id="Shape" fill="#404041"></path>
            <polygon id="Path" fill="#404041" points="648.2 182.1 693.3 182.1 693.3 195.3 663.6 195.3 663.6 203.8 690.5 203.8 690.5 216.1 663.6 216.1 663.6 225 693.7 225 693.7 238.2 648.2 238.2"></polygon>
            <path d="M43.1,216.9 C40.9,221.8 36.3,225.3 30.3,225.3 C21.8,225.3 16,218.2 16,210.2 L16,210 C16,201.9 21.7,195 30.2,195 C36.6,195 41.5,198.9 43.5,204.3 L59.9,204.3 C57.3,190.9 45.5,181 30.3,181 C13,181 1.42108547e-14,194.1 1.42108547e-14,210.2 L1.42108547e-14,210.4 C1.42108547e-14,226.5 12.8,239.4 30.1,239.4 C44.9,239.4 56.5,229.8 59.5,217 L43.1,216.9 L43.1,216.9 Z" id="Path" fill="#404041"></path>
            <g id="Group" transform="translate(362.000000, 0.000000)">
                <polygon id="Path" fill="#FFFFFF" points="312.9 92.6 270 68 262.6 64.8 87.1 66 87.1 155.1 312.9 155.1"></polygon>
                <path d="M234.8,146.9 C236.9,139.7 236.1,133.1 232.6,128.2 C229.4,123.7 224,121.1 217.5,120.8 L94.4,119.2 C93.6,119.2 92.9,118.8 92.5,118.2 C92.1,117.6 92,116.8 92.2,116 C92.6,114.8 93.8,113.9 95.1,113.8 L219.3,112.2 C234,111.5 250,99.6 255.6,85 L262.7,66.5 C263,65.7 263.1,64.9 262.9,64.1 C254.9,27.9 222.6,0.9 184,0.9 C148.4,0.9 118.2,23.9 107.4,55.8 C100.4,50.6 91.5,47.8 81.9,48.7 C64.8,50.4 51.1,64.1 49.4,81.2 C49,85.6 49.3,89.9 50.3,93.9 C22.4,94.7 0.1,117.5 0.1,145.6 C0.1,148.1 0.3,150.6 0.6,153.1 C0.8,154.3 1.8,155.2 3,155.2 L230.2,155.2 C231.5,155.2 232.7,154.3 233.1,153 L234.8,146.9 Z" id="Path" fill="#F38020"></path>
                <path d="M274,67.8 C272.9,67.8 271.7,67.8 270.6,67.9 C269.8,67.9 269.1,68.5 268.8,69.3 L264,86 C261.9,93.2 262.7,99.8 266.2,104.7 C269.4,109.2 274.8,111.8 281.3,112.1 L307.5,113.7 C308.3,113.7 309,114.1 309.4,114.7 C309.8,115.3 309.9,116.2 309.7,116.9 C309.3,118.1 308.1,119 306.8,119.1 L279.5,120.7 C264.7,121.4 248.8,133.3 243.2,147.9 L241.2,153 C240.8,154 241.5,155 242.6,155 L336.4,155 C337.5,155 338.5,154.3 338.8,153.2 C340.4,147.4 341.3,141.3 341.3,135 C341.3,98 311.1,67.8 274,67.8" id="Path" fill="#FAAE40"></path>
            </g>
        </g>
    </g>
</svg>