<?xml version="1.0" encoding="utf-8"?>
<!-- Generator: Adobe Illustrator 24.3.0, SVG Export Plug-In . SVG Version: 6.00 Build 0)  -->
<svg version="1.1" id="图层_1" xmlns="http://www.w3.org/2000/svg" xmlns:xlink="http://www.w3.org/1999/xlink" x="0px" y="0px"
	 viewBox="0 0 1338 903.4" style="enable-background:new 0 0 1338 903.4;" xml:space="preserve">
<g>
	<path d="M675.6,621.1c82.9,0,160.9-32.3,219.6-91c58.7-58.7,91-136.6,91-219.6c0-82.9-32.3-160.9-91-219.6
		C836.5,32.3,758.5,0,675.6,0S514.6,32.3,456,91c-58.7,58.7-91,136.6-91,219.6s32.3,160.9,91,219.6
		C514.6,588.8,592.6,621.1,675.6,621.1z M675.6,284.6l-126.9-73.3l126.9-73.2l127.3,73.5L675.6,284.6z M824.9,250.8v146L698.1,470
		V323.6L824.9,250.8z M526.2,250.3l126.9,73.2V470l-126.9-73.2V250.3z M863.3,498.3c-44.8,44.8-102.8,71.6-165.3,76.8V522
		l171.9-99.2V224.9l46.4-26.6c16.2,34.7,24.8,72.8,24.8,112.3C941.1,381.5,913.5,448.2,863.3,498.3z M675.6,45
		c70.9,0,137.6,27.6,187.8,77.8c11.4,11.4,21.6,23.6,30.6,36.5l-45.9,26.4L675.6,86.1l-172.1,99.4l-46.2-26.3
		c9-12.9,19.2-25.1,30.5-36.4C537.9,72.6,604.6,45,675.6,45z M434.8,198.2l46.4,26.4v198.1L653.1,522v53.2
		c-62.4-5.2-120.5-32-165.3-76.8C437.6,448.2,410,381.5,410,310.5C410,271.1,418.6,232.9,434.8,198.2z"/>
	<rect x="0" y="739.5" width="30.9" height="162.5"/>
	<path d="M479.2,808.9c-5.8-2.3-14.7-3.4-26.6-3.4h-23.3c-8.6,0-14.7-1-18.3-2.9c-5.5-2.6-8.3-7.7-8.3-15.5c0-9.2,3.3-14.7,9.8-16.4
		c3.2-0.8,9.7-1.3,19.4-1.5h58.4l1.5-28.8h-66.9c-8.6,0-15,0.2-19.4,0.7c-12.8,1.6-22.1,6.9-27.9,16c-6,9.4-8.9,19.7-8.9,31
		c0,7.3,1.3,14,3.8,20.3c2.5,6.3,6.1,11.5,10.6,15.7c7.3,6.6,19.1,9.9,35.5,9.9h27c7.4,0,12.8,1.1,16.1,3.1c6,3.5,8.9,9.3,8.9,17.2
		c0,6.8-2.5,11.9-7.6,15.2c-3.5,2.3-10.5,3.4-21.1,3.4h-66.4l-0.5,28.8h73.5c11.2,0,19.5-0.5,25-1.5c11.3-2.3,19.8-8.9,25.5-19.8
		c4.1-7.7,6.1-16.5,6.1-26.4c0-8.9-1.5-17.2-4.6-24.9C496.6,819.5,489.5,812.7,479.2,808.9z"/>
	<path d="M173.8,743.3c-5.7-2-15.1-3-28.3-3H64.4v162.4h39.5v-59.3v-3.8v-27.2V811v-43.4h42.7c5.4,0,9.3,0.5,11.8,1.6
		c6.8,2.9,10.2,9.5,10.2,19.7c0,9.5-2.3,16.1-6.8,19.9c-3,2.4-8.4,3.7-15.9,3.7h-30.2l10,27.2h27.9c8.4,0,15.1-0.8,19.9-2.3
		c4.9-1.5,9.5-4.3,13.8-8.2c4.8-4.4,8.5-10.1,11.2-17c2.7-6.9,4-14.3,4-22.1c0-9.3-2-17.9-6.1-25.9
		C191,753.6,183.4,746.7,173.8,743.3z"/>
	<polygon points="224.9,903.2 265.2,903.2 265.2,773.2 346.9,773.2 346.9,740.7 224.9,740.7 	"/>
	<polygon points="288.4,836.6 331.5,836.6 331.5,804 276.6,804 	"/>
	<polygon points="591.2,836.7 634.3,836.7 634.3,804.2 579.4,804.2 	"/>
	<polygon points="527.7,903.4 568,903.4 568,773.3 649.7,773.3 649.7,740.8 527.7,740.8 	"/>
	<polygon points="1338,739.5 1209,739.5 1209,901.3 1338,901.3 1338,869.8 1251.3,869.8 1251.3,773.8 1338,773.8 	"/>
	<polygon points="1333.1,832.8 1333.1,800.6 1259.5,800.6 1271.3,832.8 	"/>
	<path d="M717.5,821.4v-70.3c-27,13.6-45.2,40-45.2,70.3c0,44.2,38.8,80,86.6,80c8.5,0,16.6-1.1,24.4-3.2v-45.9
		c-6.8,4.6-15.3,7.3-24.4,7.3C736.1,859.7,717.5,842.5,717.5,821.4z"/>
	<path d="M758.9,741.4c-9.8,0-19.3,1.5-28.1,4.3v47.6c7.4-6.3,17.2-10.1,28.1-10.1c22.9,0,41.4,17.1,41.4,38.2
		c0,5.6-1.3,11-3.7,15.8v56.3c29-12.9,48.9-40.3,48.9-72.1C845.5,777.2,806.8,741.4,758.9,741.4z"/>
	<path d="M985.3,749.4c-8.4-5.8-23.3-8.7-44.7-8.7h-74.8v161.2h32.6v-61.4h26.2c17.3,0,33-1.1,49-6.6c7.5-2.6,14.3-7.9,18.9-12.9
		c7.3-8.4,11-20.2,11-35.4c0-7.6-1.6-14.5-4.7-20.8C995.6,758.3,991.1,753.2,985.3,749.4z M960.3,808.2c-3.2,2.4-8.6,3.6-16.3,3.6
		h-45.7v-42.4H944c5.8,0,10,0.5,12.6,1.4c7.3,2.7,11,9,11,18.8C967.6,798.4,965.2,804.6,960.3,808.2z"/>
	<path d="M933,851.6l25,51.3h39.7l-27.8-59.5C969.9,843.3,952.8,850,933,851.6z"/>
	<path d="M1181.7,844.9l-38.3-5.1c-2.5,9.5-7.5,18.6-17.3,24.6c0,0-25.6,13.9-49.2-3.5c0,0-10.6-7-11.3-33H1024
		c0.1,3.9,0.3,7,0.6,9.1c0.8,6.3,2.3,12.3,4.4,18.1c5.6,13.8,15,24.7,28.5,32.6c13.4,7.9,29.3,11.8,47.7,11.8
		c18.4,0,34.6-3.7,48.7-11.2c14.1-7.5,23.8-17.9,29-31.1c1.1-2.4,2-5.1,2.5-8.3C1185.6,846.6,1184.3,845.3,1181.7,844.9z"/>
	<path d="M1184.4,784.2c-4.4-12-13.5-22-27.2-29.9c-13.8-7.9-30-11.8-48.6-11.8c-18.4,0-34.5,3.8-48.3,11.5
		c-13.8,7.7-23.7,18.3-29.6,31.7c-3.5,8.6-5.7,18.1-6.4,28.4h42c0.3-3.1,0.7-6.4,1.2-9.8c0,0,5.4-31.1,38.6-29.8
		c0,0,31.5-0.4,36.6,25.2c0,0,0.4,1.6,0.9,4.2l39.8-5c1.2-0.2,2.1-0.6,2.9-1.3c0.7-0.7,1.1-1.5,0.9-2.5
		C1186.6,790.7,1185.7,787.2,1184.4,784.2z"/>
</g>
</svg>
