<?xml version="1.0" encoding="UTF-8"?>
<svg width="36px" height="30px" viewBox="0 0 36 30" version="1.1" xmlns="http://www.w3.org/2000/svg" xmlns:xlink="http://www.w3.org/1999/xlink">
    <g stroke="none" stroke-width="1" fill="none" fill-rule="evenodd">
        <g id="logo-tierion" fill="#F94081" fill-rule="nonzero">
            <path d="M25.4676,18.7764 C20.3379854,18.4142085 15.1892146,18.4142085 10.0596,18.7764 C9.8916,16.1604 9.8064,14.8536 9.636,12.24 C15.0472779,11.8583167 20.4787221,11.8583167 25.89,12.24 L25.4676,18.7764 M21.264,29.4192 C18.4644,29.286 17.0616,29.286 14.262,29.4192 L14.0736,23.5956 C17.0244,23.454 18.5016,23.4552 21.4536,23.5956 L21.264,29.4192 M0.0228,1.7184 C0.4848,4.8744 0.714,6.4536 1.17,9.6108 C1.713661,8.64349161 2.27212669,7.68457882 2.8452,6.7344 C13.0512,5.268 22.8348,5.2884 33.0348,6.7944 C33.4875556,7.72735411 33.9279939,8.66623567 34.356,9.6108 C34.812,6.4536 35.0424,4.8744 35.5032,1.7184 C23.508,-0.2928 12.0192,-0.2928 0.024,1.7184" id="Shape"></path>
        </g>
    </g>
</svg>