<?xml version="1.0" encoding="UTF-8"?>
<svg width="108px" height="90px" viewBox="0 0 108 90" version="1.1" xmlns="http://www.w3.org/2000/svg" xmlns:xlink="http://www.w3.org/1999/xlink">
    <g stroke="none" stroke-width="1" fill="none" fill-rule="evenodd">
        <g id="logo-tierion" transform="translate(4.000000, 3.000000)" fill="#F94081" fill-rule="nonzero">
            <path d="M70.7433333,52.1566667 C56.494404,51.1505793 42.1922626,51.1505793 27.9433333,52.1566667 C27.4766667,44.89 27.24,41.26 26.7666667,34 C41.7979941,32.9397685 56.8853393,32.9397685 71.9166667,34 L70.7433333,52.1566667 M59.0666667,81.72 C51.29,81.35 47.3933333,81.35 39.6166667,81.72 L39.0933333,65.5433333 C47.29,65.15 51.3933333,65.1533333 59.5933333,65.5433333 L59.0666667,81.72 M0.0633333333,4.77333333 C1.34666667,13.54 1.98333333,17.9266667 3.25,26.6966667 C4.76016945,24.0096989 6.31146302,21.3460523 7.90333333,18.7066667 C36.2533333,14.6333333 63.43,14.69 91.7633333,18.8733333 C93.0209878,21.4648725 94.2444274,24.0728769 95.4333333,26.6966667 C96.7,17.9266667 97.34,13.54 98.62,4.77333333 C65.3,-0.813333333 33.3866667,-0.813333333 0.0666666667,4.77333333" id="Shape"></path>
        </g>
    </g>
</svg>