<?xml version="1.0" standalone="no"?>
<!DOCTYPE svg PUBLIC "-//W3C//DTD SVG 20010904//EN"
        "http://www.w3.org/TR/2001/REC-SVG-20010904/DTD/svg10.dtd">
<svg version="1.0" xmlns="http://www.w3.org/2000/svg"
     width="1920.000000pt" height="862.000000pt" viewBox="0 0 1920.000000 862.000000"
     preserveAspectRatio="xMidYMid meet">

    <g transform="translate(0.000000,862.000000) scale(0.100000,-0.100000)"
       fill="#000000" stroke="none">
        <path d="M1352 7078 l3 -193 103 -3 102 -3 0 -84 0 -85 -105 0 -105 0 2 -192
3 -193 340 0 340 0 3 88 3 87 -241 0 -240 0 0 105 0 105 220 0 220 0 0 85 0
85 -220 0 -220 0 0 105 0 105 238 2 237 3 3 88 3 87 -346 0 -345 0 2 -192z"/>
        <path d="M2210 6795 l0 -476 103 3 102 3 3 192 2 191 163 4 c150 3 166 5 217
29 63 30 103 67 133 124 17 32 22 57 22 125 0 96 -18 141 -77 196 -76 73 -136
84 -433 84 l-235 0 0 -475z m490 280 c55 -28 73 -76 49 -129 -20 -42 -69 -58
-205 -64 l-124 -5 0 107 0 106 125 0 c92 0 134 -4 155 -15z"/>
        <path d="M3090 7075 l0 -195 100 0 100 0 0 -85 0 -85 -100 0 -100 0 0 -195 0
-195 100 0 100 0 0 195 0 195 220 0 220 0 0 85 0 85 -220 0 -220 0 0 105 0
105 240 0 240 0 0 90 0 90 -340 0 -340 0 0 -195z"/>
        <path d="M3920 6795 l0 -475 343 2 342 3 3 88 3 87 -241 0 -240 0 0 385 0 385
-105 0 -105 0 0 -475z"/>
        <path d="M1350 5885 l0 -85 345 0 345 0 0 85 0 85 -345 0 -345 0 0 -85z"/>
        <path d="M3238 5934 c-100 -18 -225 -64 -312 -116 -83 -48 -215 -177 -271
-263 -126 -192 -188 -483 -165 -767 26 -318 120 -540 298 -709 114 -108 216
-163 390 -211 64 -18 106 -22 252 -22 211 -1 300 17 455 94 171 84 288 200
366 365 37 79 69 183 69 224 0 21 -2 21 -190 19 l-191 -3 -23 -66 c-27 -78
-67 -139 -129 -196 -73 -67 -140 -96 -268 -113 -230 -32 -418 73 -522 290 -71
149 -82 210 -82 445 0 228 10 283 76 422 105 220 304 327 547 295 189 -25 317
-130 382 -314 l18 -53 193 -3 192 -2 -7 42 c-12 77 -62 205 -109 281 -56 89
-178 207 -267 260 -73 42 -215 91 -311 107 -88 14 -298 11 -391 -6z"/>
        <path d="M12449 5910 c-100 -10 -206 -42 -251 -77 -87 -68 -119 -149 -126
-320 l-4 -123 -109 0 -109 0 0 -135 0 -135 110 0 110 0 0 -625 0 -625 193 2
192 3 3 623 2 622 150 0 150 0 0 135 0 135 -151 0 -151 0 3 85 c4 76 7 87 31
112 25 25 37 28 148 37 l120 10 0 143 0 143 -117 -1 c-65 -1 -152 -5 -194 -9z"/>
        <path d="M7790 5595 l0 -205 -105 0 -105 0 0 -135 0 -135 105 0 105 0 0 -472
c0 -515 5 -575 55 -650 61 -93 143 -116 433 -125 l212 -6 0 146 0 147 -100 0
c-119 0 -161 14 -187 62 -16 30 -18 70 -21 466 l-3 432 161 0 160 0 0 135 0
135 -160 0 -160 0 0 205 0 205 -195 0 -195 0 0 -205z"/>
        <path d="M5115 5420 c-150 -16 -269 -62 -388 -151 -115 -87 -212 -233 -257
-389 -31 -107 -38 -307 -15 -421 77 -383 365 -619 755 -619 229 0 428 82 569
236 53 58 141 204 141 233 0 8 -61 11 -199 11 l-198 0 -26 -39 c-57 -85 -160
-133 -287 -133 -137 -1 -249 57 -316 163 -28 44 -64 148 -64 184 l0 25 555 0
555 0 0 84 c0 146 -40 318 -103 441 -131 260 -414 407 -722 375z m236 -317
c102 -45 173 -141 186 -253 l6 -50 -357 0 c-336 0 -357 1 -352 18 3 9 8 31 12
47 29 124 147 238 276 265 65 13 166 2 229 -27z"/>
        <path d="M6885 5419 c-132 -16 -255 -81 -327 -172 l-38 -49 0 96 0 96 -195 0
-195 0 2 -757 3 -758 193 -3 192 -2 0 412 c0 439 8 554 41 645 27 72 87 137
147 160 65 25 194 25 242 -1 56 -29 88 -66 112 -125 22 -55 23 -66 28 -571 l5
-515 193 -3 193 -2 -3 572 -3 573 -27 80 c-58 172 -160 269 -323 309 -80 19
-167 25 -240 15z"/>
        <path d="M9203 5419 c-179 -18 -319 -85 -448 -214 -102 -101 -155 -193 -197
-340 -32 -112 -32 -341 1 -459 92 -339 345 -545 693 -563 169 -9 326 25 456
98 91 52 219 188 270 289 l44 85 -203 3 c-186 2 -204 1 -212 -15 -6 -10 -31
-39 -57 -64 -66 -65 -139 -91 -253 -92 -83 0 -92 2 -164 39 -116 59 -185 156
-208 292 l-7 42 555 0 c496 0 556 2 561 16 9 22 -10 220 -29 299 -92 397 -404
625 -802 584z m233 -310 c104 -39 181 -143 197 -266 l5 -43 -355 0 -356 0 7
39 c21 136 143 262 280 291 58 13 157 3 222 -21z"/>
        <path d="M13437 5418 c-94 -10 -227 -54 -303 -99 -83 -49 -178 -141 -233 -226
-125 -190 -162 -494 -89 -732 102 -334 401 -537 762 -518 131 7 203 25 311 77
196 95 324 255 381 478 36 139 36 325 0 464 -73 286 -277 484 -556 541 -102
21 -180 26 -273 15z m239 -332 c144 -66 217 -218 218 -451 1 -178 -34 -292
-115 -380 -63 -69 -126 -97 -225 -103 -108 -6 -167 14 -239 80 -103 94 -152
248 -141 443 13 238 106 384 275 432 62 17 163 8 227 -21z"/>
        <path d="M10222 4633 l3 -758 195 0 195 0 5 470 c7 528 5 519 80 597 62 64
122 81 275 76 l115 -3 0 181 c0 205 5 194 -84 194 -150 0 -296 -81 -367 -205
l-29 -50 0 128 0 127 -195 0 -195 0 2 -757z"/>
        <path d="M14490 4630 l0 -760 193 2 192 3 5 470 c5 468 5 470 29 522 52 117
135 155 326 152 l120 -2 3 180 c2 180 2 181 -20 187 -62 16 -182 -1 -263 -38
-68 -31 -120 -78 -167 -150 l-38 -59 0 126 0 127 -190 0 -190 0 0 -760z"/>
        <path d="M2615 3288 c-3 -7 -4 -467 -3 -1023 l3 -1010 290 -3 c704 -7 974 55
1196 277 128 128 200 283 235 501 25 158 15 460 -19 590 -51 195 -112 306
-231 417 -86 81 -158 125 -274 169 -194 73 -392 94 -880 94 -241 0 -314 -3
-317 -12z m725 -318 c134 -13 206 -31 298 -76 131 -64 216 -173 264 -339 21
-72 23 -100 23 -280 -1 -224 -10 -275 -71 -401 -65 -132 -190 -228 -349 -269
-75 -19 -247 -35 -382 -35 l-103 0 0 705 0 705 108 0 c59 0 154 -5 212 -10z"/>
        <path d="M4617 3293 c-4 -3 -7 -87 -7 -185 l0 -178 195 0 195 0 0 185 0 185
-188 0 c-104 0 -192 -3 -195 -7z"/>
        <path d="M6985 3287 c-3 -7 -4 -89 -3 -182 l3 -170 195 0 195 0 0 180 0 180
-193 3 c-151 2 -194 0 -197 -11z"/>
        <path d="M10230 2275 l0 -1025 195 0 195 0 0 1025 0 1025 -195 0 -195 0 0
-1025z"/>
        <path d="M11447 3293 c-4 -3 -7 -78 -7 -165 l0 -158 315 0 315 0 0 -860 0
-860 203 2 202 3 3 858 2 857 310 0 310 0 0 165 0 165 -823 0 c-453 0 -827 -3
-830 -7z"/>
        <path d="M7730 2975 l0 -205 -105 0 -105 0 0 -135 0 -135 104 0 104 0 5 -492
c4 -524 7 -552 55 -630 60 -97 202 -132 507 -126 l140 3 0 140 0 140 -116 5
c-98 4 -120 8 -139 25 -50 45 -50 45 -50 505 l0 430 155 0 155 0 0 135 0 135
-155 0 -155 0 0 205 0 205 -200 0 -200 0 0 -205z"/>
        <path d="M17150 2975 l0 -205 -105 0 -105 0 0 -135 0 -135 105 0 105 0 0 -447
c1 -495 6 -571 48 -653 57 -113 134 -139 440 -147 l212 -6 0 147 0 146 -101 0
c-118 0 -159 14 -183 65 -14 28 -16 92 -16 464 l0 431 155 0 155 0 0 135 0
135 -155 0 -155 0 0 205 0 205 -200 0 -200 0 0 -205z"/>
        <path d="M9135 2796 c-261 -52 -438 -206 -490 -428 -8 -35 -15 -66 -15 -70 0
-5 83 -8 184 -8 l184 0 6 44 c10 66 54 126 117 161 50 28 62 30 154 30 109 0
150 -13 201 -63 40 -40 72 -118 80 -194 8 -78 26 -68 -161 -93 -356 -48 -587
-124 -709 -235 -167 -153 -163 -408 10 -570 108 -100 249 -150 423 -150 187 1
334 53 430 154 29 31 53 50 56 43 2 -6 6 -40 10 -75 10 -99 -6 -92 190 -92 96
0 176 3 178 8 3 4 -2 39 -10 77 -11 53 -17 182 -22 525 -8 473 -9 478 -56 610
-53 150 -198 271 -376 315 -90 22 -297 28 -384 11z m435 -936 c0 -148 -29
-231 -104 -297 -65 -57 -133 -76 -254 -71 -158 7 -232 62 -240 178 -8 105 49
166 193 209 75 23 292 59 363 60 l42 1 0 -80z"/>
        <path d="M16052 2799 c-83 -14 -201 -57 -263 -95 -79 -48 -162 -140 -190 -211
-18 -45 -23 -77 -22 -148 0 -118 25 -184 98 -264 92 -98 181 -136 482 -201
197 -42 290 -77 327 -121 56 -66 35 -166 -46 -213 -90 -53 -261 -56 -364 -6
-60 29 -117 97 -138 165 l-18 55 -184 0 -184 0 0 -31 c0 -48 47 -176 86 -235
109 -164 302 -260 546 -271 246 -12 445 53 581 188 80 80 118 163 124 273 14
216 -96 349 -352 429 -44 14 -163 44 -265 66 -261 59 -324 94 -337 188 -8 58
18 97 87 131 48 24 66 27 150 26 74 -1 108 -6 154 -24 73 -28 140 -92 157
-149 l12 -41 184 0 184 0 -7 38 c-19 106 -90 231 -170 300 -59 51 -184 114
-274 137 -77 19 -283 28 -358 14z"/>
        <path d="M5710 2784 c-30 -8 -89 -31 -130 -51 -98 -47 -219 -166 -272 -268
-109 -209 -127 -474 -49 -703 40 -114 83 -184 171 -272 119 -120 263 -180 435
-180 153 0 274 47 374 147 l63 63 -4 -142 c-4 -122 -8 -151 -27 -196 -50 -112
-151 -165 -312 -165 -153 1 -248 46 -285 138 l-19 45 -188 0 -187 0 6 -28 c27
-122 72 -209 146 -278 68 -64 110 -89 196 -118 113 -39 205 -49 379 -43 132 4
173 9 248 31 180 54 294 143 360 280 71 147 68 117 72 964 l4 762 -196 0 -195
0 0 -91 0 -90 -56 60 c-60 65 -139 111 -234 136 -70 19 -228 18 -300 -1z m373
-300 c99 -33 189 -151 216 -282 16 -76 14 -238 -4 -305 -46 -177 -150 -275
-301 -285 -97 -6 -158 15 -229 80 -152 139 -188 419 -80 628 28 55 107 131
160 156 61 29 167 32 238 8z"/>
        <path d="M4612 2013 l3 -758 193 -3 192 -2 0 760 0 760 -195 0 -195 0 2 -757z"/>
        <path d="M6982 2013 l3 -758 195 0 195 0 3 758 2 757 -200 0 -200 0 2 -757z"/>
        <path d="M13000 2010 l0 -760 193 2 192 3 6 465 c3 320 9 476 17 500 31 91 98
151 188 170 30 6 103 10 162 9 l107 -3 3 181 c2 180 2 181 -20 187 -60 16
-202 -5 -271 -40 -58 -29 -115 -83 -156 -146 l-41 -63 0 128 0 127 -190 0
-190 0 0 -760z"/>
        <path d="M14002 2193 l3 -578 28 -80 c75 -216 222 -314 467 -315 156 0 279 47
377 145 l62 62 3 -86 3 -86 195 0 195 0 3 758 2 757 -200 0 -200 0 0 -462 c0
-374 -3 -475 -15 -526 -40 -169 -130 -245 -290 -245 -120 0 -172 31 -217 128
-23 50 -23 52 -26 578 l-3 527 -195 0 -195 0 3 -577z"/>
    </g>
</svg>
