<svg id="svg" version="1.1" xmlns="http://www.w3.org/2000/svg" xmlns:xlink="http://www.w3.org/1999/xlink" width="400" height="100.6853582554517" viewBox="0, 0, 400,100.6853582554517"><g id="svgg"><path id="path0" d="M55.078 18.340 L 55.078 36.680 54.120 35.474 C 43.069 21.557,15.798 23.872,5.264 39.622 C -1.529 49.777,-1.510 58.041,5.314 61.185 C 7.028 61.975,7.896 62.192,13.659 63.278 C 18.654 64.219,18.442 65.327,13.084 66.290 C 8.304 67.148,6.215 69.798,7.062 73.930 C 10.342 89.940,23.080 99.835,40.374 99.804 C 49.905 99.787,56.149 96.956,61.212 90.355 L 61.967 89.370 62.448 93.844 L 62.928 98.318 70.717 98.384 L 78.505 98.449 78.505 85.424 L 78.505 72.399 79.813 71.665 C 86.137 68.120,84.600 64.831,75.502 62.437 C 68.353 60.557,66.546 58.600,69.678 56.131 C 70.375 55.581,71.104 54.755,71.298 54.295 C 71.698 53.346,71.681 55.295,71.589 22.368 L 71.526 0.000 63.302 0.000 L 55.078 0.000 55.078 18.340 M374.068 18.380 C 374.056 35.749,374.032 36.726,373.632 36.137 C 369.750 30.420,360.414 26.279,351.526 26.332 C 337.861 26.413,326.871 32.847,321.865 43.698 C 316.429 55.481,318.927 61.468,330.093 63.425 C 337.743 64.765,338.203 65.734,331.794 67.014 C 326.366 68.097,325.018 70.145,326.330 75.313 C 328.247 82.872,332.264 89.002,338.214 93.448 C 351.400 103.300,373.521 101.570,380.261 90.160 C 380.902 89.074,380.945 89.213,381.433 93.956 L 381.894 98.442 389.701 98.442 L 397.508 98.442 397.508 85.451 L 397.508 72.459 398.404 71.467 C 401.802 67.706,400.084 65.102,392.604 62.678 C 386.280 60.629,385.135 58.851,388.456 56.242 C 390.872 54.343,390.663 57.231,390.585 26.854 L 390.517 0.000 382.299 0.000 L 374.081 0.000 374.068 18.380 M119.626 26.417 C 114.421 27.243,109.773 30.114,106.912 34.268 C 106.266 35.205,106.032 35.402,105.965 35.063 C 105.916 34.814,105.630 33.132,105.329 31.324 L 104.780 28.037 97.125 27.971 L 89.470 27.906 89.470 40.732 C 89.470 53.947,89.553 55.255,90.500 57.127 C 92.143 60.375,95.158 62.041,101.461 63.183 C 107.939 64.356,108.545 65.211,103.676 66.306 C 100.003 67.132,99.667 67.278,98.319 68.635 C 96.403 70.563,96.449 70.154,96.449 85.200 L 96.449 98.442 104.673 98.442 L 112.897 98.442 112.897 85.510 C 112.897 75.394,112.965 72.550,113.209 72.456 C 114.006 72.146,116.662 69.922,117.120 69.181 C 118.868 66.353,116.620 64.344,109.283 62.178 C 104.425 60.744,102.977 59.001,104.817 56.799 C 105.897 55.506,106.692 53.978,107.389 51.855 C 110.401 42.681,124.758 39.253,133.158 45.701 C 134.692 46.879,134.264 47.392,138.305 39.526 C 142.419 31.518,142.202 32.548,140.114 30.960 C 135.190 27.217,126.594 25.310,119.626 26.417 M178.202 26.439 C 166.136 27.601,156.648 33.867,151.870 43.829 C 151.105 45.424,150.073 47.570,149.576 48.598 C 146.117 55.759,150.179 61.227,160.410 63.180 C 167.084 64.454,167.444 65.347,161.754 66.514 C 156.627 67.566,154.888 69.814,155.752 74.271 C 158.379 87.821,167.229 96.858,180.657 99.701 C 192.355 102.177,204.813 98.208,209.872 90.393 L 210.807 88.948 210.946 90.019 C 211.104 91.235,211.589 97.220,211.589 97.957 C 211.589 98.428,211.828 98.442,219.439 98.442 L 227.290 98.442 227.290 85.443 L 227.290 72.444 228.638 71.031 C 232.301 67.190,230.568 64.602,222.774 62.274 C 216.538 60.410,215.228 58.520,218.398 55.960 C 220.662 54.130,220.561 54.855,220.561 40.508 L 220.561 27.913 212.609 27.913 L 204.657 27.913 204.504 30.343 C 204.420 31.679,204.267 33.726,204.165 34.891 L 203.979 37.009 203.528 36.175 C 199.962 29.572,189.086 25.391,178.202 26.439 M270.239 27.269 C 265.090 28.248,260.220 30.763,255.576 34.841 C 253.207 36.921,253.437 37.193,252.825 31.589 L 252.397 27.664 245.077 27.664 L 237.757 27.664 237.705 40.187 C 237.643 54.974,237.644 55.005,238.312 56.791 C 239.666 60.409,242.976 62.375,249.844 63.640 C 256.182 64.807,256.561 65.680,251.215 66.804 C 248.228 67.431,247.598 67.704,246.178 68.986 C 244.428 70.565,244.486 70.014,244.486 84.976 L 244.486 98.442 252.710 98.442 L 260.935 98.442 260.935 85.774 L 260.935 73.105 262.319 72.151 C 267.786 68.386,266.434 65.172,258.430 62.907 C 252.563 61.247,250.784 59.336,252.933 57.005 C 253.499 56.390,254.409 54.905,254.969 53.679 C 257.541 48.056,259.514 45.720,263.469 43.611 C 272.418 38.842,284.744 44.091,285.882 53.157 C 286.610 58.952,290.282 62.016,298.442 63.638 C 304.381 64.819,304.783 65.670,299.933 66.793 C 297.007 67.470,296.538 67.668,295.622 68.615 C 294.049 70.240,294.081 69.905,294.081 84.852 L 294.081 98.442 302.305 98.442 L 310.530 98.442 310.530 85.409 L 310.530 72.375 311.518 71.410 C 315.070 67.941,313.450 65.086,306.646 62.823 C 300.631 60.823,299.332 59.220,301.629 56.633 C 303.610 54.402,303.592 52.288,301.539 46.262 C 296.834 32.448,283.991 24.655,270.239 27.269 M189.907 41.630 C 196.266 43.411,201.925 49.034,202.435 54.081 C 202.964 59.311,206.452 61.754,215.920 63.527 C 217.411 63.806,218.918 64.222,219.268 64.452 L 219.904 64.869 219.389 65.285 C 219.106 65.515,217.712 65.963,216.291 66.281 C 213.371 66.936,212.245 67.428,211.327 68.451 C 210.243 69.658,210.141 69.862,209.594 71.906 C 205.018 89.015,179.479 90.190,172.983 73.590 L 172.474 72.289 173.541 71.555 C 178.731 67.984,177.261 64.852,169.303 62.526 C 163.136 60.723,161.677 58.980,164.090 56.296 C 164.751 55.561,165.506 54.305,165.986 53.144 C 169.923 43.613,179.875 38.823,189.907 41.630 M40.218 42.490 C 46.598 44.339,51.784 49.252,52.374 54.009 C 53.029 59.287,56.528 61.735,65.296 63.051 C 72.731 64.167,73.438 65.066,67.763 66.188 C 62.931 67.144,60.736 68.546,60.030 71.126 C 59.118 74.464,57.530 77.065,54.919 79.502 C 45.681 88.122,30.278 85.515,24.735 74.393 C 23.762 72.440,23.768 72.405,25.261 71.414 C 31.044 67.576,29.598 64.679,20.605 62.080 C 14.938 60.443,13.329 58.516,15.697 56.203 C 16.385 55.531,16.885 54.693,17.326 53.474 C 20.658 44.253,30.314 39.620,40.218 42.490 M358.879 42.379 C 365.121 44.109,370.501 49.049,371.556 54.022 C 372.616 59.019,376.783 62.275,383.585 63.421 C 390.620 64.607,390.988 65.434,385.047 66.703 C 380.674 67.638,379.409 68.617,378.795 71.545 C 377.764 76.465,372.824 81.602,367.293 83.508 C 358.167 86.653,348.135 82.903,343.940 74.780 L 342.853 72.676 343.451 72.289 C 349.113 68.626,347.879 65.384,339.900 62.957 C 335.243 61.541,334.201 60.957,333.550 59.401 C 333.141 58.420,333.327 57.911,334.540 56.700 C 335.352 55.889,336.783 52.980,337.038 51.621 C 337.249 50.500,339.127 47.908,340.792 46.440 C 345.569 42.228,352.620 40.645,358.879 42.379 " stroke="none" fill="#000000" fill-rule="evenodd"></path></g></svg>