<?xml version="1.0" encoding="UTF-8"?>
<svg version="1.1" viewBox="0 0 535 646" xmlns="http://www.w3.org/2000/svg">
<title>drand logo</title>
<defs>
<linearGradient id="a" x1="50.181%" x2="50.181%" y1="99.766%" y2="-.23381%">
<stop stop-color="#2D2E82" offset=".0106"/>
<stop stop-color="#009EE2" offset=".9732"/>
</linearGradient>
</defs>
<g fill="none" fill-rule="evenodd">
<path id="Path" d="m449.78 581.47c3.933-9.405 12.824-14.876 23.255-14.876 10.259 0 19.492 5.642 23.596 14.876h25.82v-70.619h-22.058v49.416c-5.301-9.233-19.835-14.363-29.239-14.363-22.742 0-40.354 12.14-44.458 35.566h23.084z" fill="#fff" fill-rule="nonzero"/>
<path id="Path" d="m506.55 607.46c-3.762 10.431-13.337 16.586-24.281 16.586-10.943 0-20.177-6.497-23.767-16.586h-22.913c3.933 23.426 21.887 37.105 45.141 37.105 10.944 0 21.887-3.591 28.727-14.363l1.367 12.311h20.861v-35.053h-25.135z" fill="#fff" fill-rule="nonzero"/>
<polygon id="Path" points="415.29 607.46 393.23 607.46 393.23 642.51 415.29 642.51" fill="#fff" fill-rule="nonzero"/>
<path id="Path" d="m341.54 581.47c3.42-8.55 10.943-14.705 20.861-14.705 10.772 0 17.612 5.984 20.177 14.705h22.741c-3.078-22.4-18.467-34.711-37.105-34.711-11.285 0-20.347 4.446-29.239 13.337l-1.368-12.14h-19.664v33.685h23.597v-0.171z" fill="#fff" fill-rule="nonzero"/>
<polygon id="Path" points="348.9 607.46 327.01 607.46 327.01 642.51 348.9 642.51" fill="#fff" fill-rule="nonzero"/>
<path id="Path" d="m222.19 581.47c3.933-10.089 13.337-15.902 24.452-15.902 12.482 0 20.347 7.01 23.938 15.902h23.426c0.513 0 0.855-0.342 0.855-0.855v-32.488h-21.203l-0.684 12.311c-5.13-8.892-16.415-14.534-28.384-14.534-22.742-0.171-41.209 12.14-45.484 35.566h23.084z" fill="#fff" fill-rule="nonzero"/>
<path id="Path" d="m280.33 607.46c-3.078 9.747-11.285 17.612-24.623 17.612-11.627 0-21.373-6.326-24.964-17.612h-22.913c3.591 24.965 21.716 37.96 45.313 37.789 9.917-0.171 23.938-5.301 28.897-15.731l1.026 12.995h20.86v-35.053h-23.596z" fill="#fff" fill-rule="nonzero"/>
<path id="Path" d="m143.02 581.47c3.078-9.918 11.799-13.85 21.032-13.85 7.182 0 11.456 2.051 15.902 5.813l9.918-19.151c-4.959-4.958-13.68-8.549-22.913-8.549-9.063 0-18.296 1.71-25.136 12.653l-1.71-10.259h-20.518v33.343h23.425z" fill="#fff" fill-rule="nonzero"/>
<polygon id="Path" points="151.06 607.46 129 607.46 129 642.51 151.06 642.51" fill="#fff" fill-rule="nonzero"/>
<path id="Path" d="m23.158 581.47c3.933-9.405 12.824-14.876 23.254-14.876 10.26 0 19.493 5.642 23.597 14.876h25.82v-70.619h-22.058v49.416c-5.301-9.233-19.835-14.363-29.239-14.363-22.742 0-40.354 12.14-44.458 35.566h23.084z" fill="#fff" fill-rule="nonzero"/>
<path id="Path" d="m79.928 607.46c-3.762 10.431-13.338 16.586-24.281 16.586s-20.177-6.497-23.768-16.586h-22.912c3.933 23.426 21.887 37.105 45.141 37.105 10.943 0 21.887-3.591 28.726-14.363l1.368 12.311h20.69v-35.053h-24.964z" fill="#fff" fill-rule="nonzero"/>
<path id="Path" d="m0.759 578.05s-5.643 14.021 13.85 16.757c18.98 2.736 1.094 4.822 0 5.301-1.095 0.478-6.324 3.619-5.64 7.38l22.739 0.143s7.523-3.933 6.668-7.181c-0.855-3.249-4.445-4.959-11.798-6.84-7.352-1.881-8.036-5.472-6.156-7.011 2.052-1.538 2.223-2.906 3.078-4.958 1.368-3.249 1.71-11.628 1.71-11.628l-22.229 2.223-2.222 5.814z" fill="#fff" fill-rule="nonzero"/>
<path id="Path" d="m70.864 578.22s-6.155 14.021 15.218 16.757c20.861 2.736 1.895 4.685 0 5.301-1.894 0.616-5.863 3.116-6.129 7.209l24.767 0.314s8.208-3.933 7.182-7.181c-0.855-3.249-4.959-4.959-12.995-6.84-8.037-1.881-8.892-5.472-6.84-7.011 2.223-1.538 3.249-2.393 3.762-4.787 0.684-2.907 0-11.628 0-11.628l-22.913 2.052-2.052 5.814z" fill="#fff" fill-rule="nonzero"/>
<path id="Path" d="m120.28 577.7s-4.788 14.534 14.192 17.441c18.467 2.736 1.135 4.918 0 5.301-1.136 0.383-5.333 2.929-5.458 7.179l22.044 0.344s7.181-3.933 6.326-7.181c-0.855-3.249-4.445-4.959-11.456-6.84-7.182-1.881-7.866-5.472-5.985-7.011 1.881-1.538 2.052-2.906 3.078-4.958 1.71-3.42 1.71-11.628 1.71-11.628l-21.716 2.223-2.735 5.13z" fill="#fff" fill-rule="nonzero"/>
<path id="Path" d="m199.62 576.68c-0.342 0.855-0.684 1.71-0.855 2.565-0.513 3.933-0.513 13.508 14.534 15.902 18.467 2.736 1.076 4.886 0 5.301-1.076 0.414-6.124 3.386-5.44 7.148l22.026 0.375s7.181-3.933 6.326-7.181c-0.855-3.249-4.445-4.959-11.456-6.84-7.181-1.881-7.865-5.472-5.985-7.011 1.881-1.538 2.223-2.906 3.249-4.958 1.71-3.42 1.539-11.628 1.539-11.628l-21.545 2.223-2.393 4.104z" fill="#fff" fill-rule="nonzero"/>
<path id="Path" d="m271.61 576.68c-0.342 0.855-0.684 1.71-0.855 2.565-0.513 3.933-0.513 13.508 14.534 15.902 18.467 2.736 1.933 4.418 0 5.301s-4.803 3.044-4.974 7.148h23.563s5.179-3.558 4.324-6.977c-0.855-3.249-4.446-4.959-11.457-6.84-7.181-1.881-7.865-5.472-5.984-7.011 1.881-1.538 3.591-2.564 4.104-4.787 0.683-3.933 0-7.182 0-7.182l-20.861-2.394-2.394 4.275z" fill="#fff" fill-rule="nonzero"/>
<path id="Path" d="m318.8 577.19c-0.342 0.855-0.684 1.71-0.855 2.565-0.513 3.933-0.513 13.508 14.534 15.902 18.467 2.736 1.635 4.744 0 5.301-1.634 0.557-6.099 3.357-5.416 7.119l22.002 0.404s7.182-3.933 6.327-7.181c-0.855-3.249-4.446-4.959-11.456-6.84-7.011-1.881-7.866-5.472-5.985-7.011s2.223-2.906 3.249-4.958c1.71-3.42 1.539-11.628 1.539-11.628l-21.545 2.223-2.394 4.104z" fill="#fff" fill-rule="nonzero"/>
<path id="Path" d="m384.97 577.19c-0.342 0.855-2.394 1.71-2.565 2.565-0.513 3.933 1.197 13.508 15.219 15.902 17.099 2.736 1.561 4.779 0 5.301-1.561 0.521-4.275 2.735-4.446 6.839h22.057s4.446-3.249 3.762-6.668c-0.684-3.249-4.104-4.959-10.601-6.84-6.669-1.881-7.182-5.472-5.643-7.011 1.71-1.539 3.249-3.419 2.736-5.813-0.855-4.104-1.368-6.669-1.368-6.669l-18.638-2.052-0.513 4.446z" fill="#fff" fill-rule="nonzero"/>
<path id="Path" d="m427.55 577.19c-0.342 0.855-0.684 1.71-0.855 2.565-0.513 3.933-0.513 13.508 14.534 15.902 18.467 2.736 1.569 4.92 0 5.301-1.568 0.38-6.287 3.076-5.603 6.838l22.189 0.685s7.182-3.933 6.327-7.181c-0.855-3.249-4.446-4.959-11.456-6.84-7.182-1.881-7.866-5.472-5.985-7.011s2.223-2.906 3.249-4.958c1.71-3.42 1.539-11.628 1.539-11.628l-21.545 2.223-2.394 4.104z" fill="#fff" fill-rule="nonzero"/>
<path id="Path" d="m499.36 577.19c-0.342 0.855-2.565 1.71-2.565 2.565-0.513 3.933 1.368 13.508 15.902 15.902 17.954 2.736 0.502 4.353-1.709 5.301-2.212 0.947-4.385 2.735-4.555 6.839h25.25s3.927-3.249 3.243-6.668c-0.855-3.249-4.275-4.959-11.114-6.84-6.84-1.881-7.695-5.472-5.814-7.011s5.13-3.419 4.617-5.813c-0.855-4.104-1.368-6.669-1.368-6.669l-21.374-2.052-0.513 4.446z" fill="#fff" fill-rule="nonzero"/>
<path id="Path" d="m456.19 334.47v-186.22c5.396-2.38 9.177-7.771 9.177-14.036 0-8.46-6.883-15.341-15.346-15.341-2.24 0-4.361 0.493-6.281 1.359l-170.9-98.633c0.34-1.2655 0.538-2.5902 0.538-3.9617 0-8.4596-6.883-15.34-15.346-15.34s-15.346 6.8807-15.346 15.34c0 1.426 0.211 2.8006 0.577 4.1113l-171.44 98.946c-2.158-1.159-4.621-1.82-7.238-1.82-8.462 0-15.345 6.881-15.345 15.34 0 6.926 4.617 12.788 10.934 14.688v185.72c-5.747 2.219-9.839 7.784-9.839 14.302 0 8.46 6.883 15.34 15.346 15.34 2.287 0 4.449-0.515 6.401-1.416l170.66 98.494c-0.024 0.338-0.052 0.675-0.052 1.018 0 8.459 6.883 15.34 15.346 15.34s15.346-6.881 15.346-15.34c0-0.287-0.028-0.568-0.044-0.851l171.14-98.775c2.012 0.971 4.257 1.53 6.638 1.53 8.463 0 15.346-6.88 15.346-15.34 0-6.681-4.3-12.36-10.273-14.461z" fill="#FFDE52" fill-rule="nonzero"/>
<path id="Path" d="m475.5 334.47v-186.22c5.395-2.38 9.176-7.771 9.176-14.036 0-8.46-6.883-15.341-15.346-15.341-2.24 0-4.36 0.493-6.281 1.359l-170.9-98.633c0.34-1.2655 0.538-2.5902 0.538-3.9617 0-8.4596-6.884-15.34-15.346-15.34-8.463 0-15.346 6.8807-15.346 15.34 0 1.426 0.21 2.8006 0.577 4.1113l-171.44 98.946c-2.158-1.159-10.957 6.084-13.575 6.084-8.462 0-9.01-1.023-9.01 7.436 0 6.926 4.037 8.436 10.354 10.336l0.58 190.08c-5.747 2.219-9.84 7.784-9.84 14.302 0 0 0.061 5.718 8.523 5.718 3.208 2.08 9.19 5.721 13.225 8.206l170.66 98.494c-0.023 0.338-0.051 0.675-0.051 1.018 0 8.459 6.883 15.34 15.346 15.34 8.462 0 15.346-6.881 15.346-15.34 0-0.287-0.029-0.568-0.044-0.851l171.14-98.775c2.013 0.971 4.258 1.53 6.639 1.53 8.462 0 15.346-6.88 15.346-15.34 0-6.681-4.299-12.36-10.271-14.461z" fill="#FF3956" fill-rule="nonzero"/>
<path id="Path" d="m461.73 338.67v-196.36c4.108-0.877 7.191-4.518 7.191-8.881 0-5.018-4.076-9.085-9.104-9.085-1.515 0-2.941 0.375-4.197 1.028l-180.32-103.89c0.725-1.3034 1.14-2.8012 1.14-4.3986 0-5.0175-4.076-9.0848-9.105-9.0848-5.028 0-9.104 4.0673-9.104 9.0848 0 1.714 0.485 3.3129 1.312 4.6801l-180.85 104.19c-1.074-0.445-2.251-0.694-3.487-0.694-5.028 0-9.104 4.068-9.104 9.085 0 4.469 3.236 8.177 7.497 8.936v195.37c-4.788 0.267-8.591 4.215-8.591 9.06 0 5.017 4.076 9.084 9.104 9.084 1.713 0 3.311-0.48 4.679-1.301 70.272 40.484 109.67 63.182 179.94 103.67-0.112 0.569-0.173 1.154-0.173 1.756 0 5.018 4.076 9.085 9.104 9.085 5.029 0 9.105-4.067 9.105-9.085 0-0.602-0.063-1.188-0.173-1.756l179.78-103.58c1.334 0.766 2.875 1.209 4.525 1.209 5.028 0 9.104-4.067 9.104-9.085 0-4.738-3.638-8.624-8.278-9.041z" fill="url(#a)" fill-rule="nonzero"/>
<polygon id="Path" points="291.51 391 269.23 378 243.51 378 265.78 391" fill="#fff" fill-rule="nonzero"/>
<g transform="translate(55)">
<path id="Path" d="m200.46 108.49c-0.265-0.933-0.662-2-0.662-2.932-0.132-1.866 0.397-3.466 0.927-5.065l-172.16 27.189c0.927 0.933 1.722 1.999 2.252 3.065 0.662 1.333 1.192 2.665 1.192 4.265l168.45-26.522z" fill="#fff" fill-rule="nonzero"/>
<path id="Path" d="m30.551 347.05 55.487-9.33c-1.722-1.999-2.516-4.798-2.516-7.33l-53.633 9.063c0.265 2.532 0.529 5.065 0.662 7.597z" fill="#fff" fill-rule="nonzero"/>
<path id="Path" d="m219.26 458.47 105.81-116.88c-0.662 0-1.192 0.134-1.854 0.134h-0.133c-2.383 0-4.37-0.933-5.826-2.399l-101.84 112.49c1.986 1.866 3.311 4.131 3.84 6.664z" fill="#fff" fill-rule="nonzero"/>
<path id="Shape" d="m18.103 124.21c-4.238 0-7.416 3.466-7.416 7.464s3.443 7.463 7.416 7.463c3.972 0 7.416-3.331 7.416-7.463s-3.179-7.464-7.416-7.464zm0 22.791c-8.343 0-15.097-6.797-15.097-15.194 0-8.396 6.754-15.327 15.097-15.327 8.342 0 15.096 6.797 15.096 15.327 0.133 8.397-6.621 15.194-15.096 15.194z" fill="#fff" fill-rule="nonzero"/>
<path id="Shape" d="m210.12 97.026c-4.238 0-7.416 3.465-7.416 7.463 0 3.999 3.443 7.464 7.416 7.464s7.416-3.465 7.416-7.464c0-3.998-3.178-7.463-7.416-7.463zm0 22.79c-8.343 0-15.097-6.797-15.097-15.327 0-8.396 6.754-15.327 15.097-15.327s15.097 6.798 15.097 15.327c0 8.397-6.754 15.327-15.097 15.327z" fill="#fff" fill-rule="nonzero"/>
<path id="Shape" d="m400.55 124.21c-4.238 0-7.416 3.466-7.416 7.464s3.443 7.463 7.416 7.463 7.416-3.465 7.416-7.463-3.311-7.464-7.416-7.464zm0 22.791c-8.343 0-15.097-6.797-15.097-15.327 0-8.397 6.754-15.327 15.097-15.327s15.096 6.797 15.096 15.327-6.621 15.327-15.096 15.327z" fill="#fff" fill-rule="nonzero"/>
<path id="Shape" d="m210.12 7.7301c-4.238 0-7.416 3.4652-7.416 7.4635s3.443 7.4635 7.416 7.4635 7.416-3.4652 7.416-7.4635-3.178-7.4635-7.416-7.4635zm0 22.79c-8.343 0-15.097-6.7972-15.097-15.327s6.754-15.194 15.097-15.194 15.097 6.7971 15.097 15.327c0 8.5297-6.754 15.194-15.097 15.194z" fill="#fff" fill-rule="nonzero"/>
<path id="Shape" d="m210.12 452.08c-4.238 0-7.416 3.466-7.416 7.464s3.443 7.463 7.416 7.463 7.416-3.465 7.416-7.463-3.178-7.464-7.416-7.464zm0 22.924c-8.343 0-15.097-6.797-15.097-15.327 0-8.396 6.754-15.327 15.097-15.327s15.097 6.797 15.097 15.327-6.754 15.327-15.097 15.327z" fill="#fff" fill-rule="nonzero"/>
<path id="Shape" d="m19.294 338.79c-4.238 0-7.416 3.465-7.416 7.463 0 4.265 3.443 7.464 7.416 7.464s7.416-3.465 7.416-7.464c0.132-4.131-3.311-7.463-7.416-7.463zm0 22.79c-8.343 0-15.097-6.797-15.097-15.327 0-8.396 6.754-15.327 15.097-15.327s15.097 6.797 15.097 15.327-6.754 15.327-15.097 15.327z" fill="#fff" fill-rule="nonzero"/>
<path id="Shape" d="m93.454 323.46c-4.238 0-7.416 3.465-7.416 7.463 0 3.999 3.443 7.464 7.416 7.464s7.416-3.465 7.416-7.464c0-3.998-3.178-7.463-7.416-7.463zm0 22.79c-8.343 0-15.097-6.797-15.097-15.327 0-8.396 6.754-15.327 15.097-15.327s15.097 6.798 15.097 15.327c0.132 8.53-6.754 15.327-15.097 15.327z" fill="#fff" fill-rule="nonzero"/>
<path id="Shape" d="m401.61 338.79c-4.237 0-7.416 3.465-7.416 7.463 0 4.265 3.444 7.464 7.416 7.464 3.973 0 7.416-3.465 7.416-7.464 0.133-4.131-3.178-7.463-7.416-7.463zm0 22.79c-8.343 0-15.096-6.797-15.096-15.327 0-8.396 6.753-15.327 15.096-15.327s15.097 6.797 15.097 15.327c0.132 8.53-6.621 15.327-15.097 15.327z" fill="#fff" fill-rule="nonzero"/>
<path id="Shape" d="m324.27 323.46c-4.237 0-7.415 3.465-7.415 7.463 0 3.999 3.443 7.464 7.415 7.464 3.973 0 7.416-3.465 7.416-7.464 0-3.998-3.178-7.463-7.416-7.463zm0 22.79c-8.342 0-15.096-6.797-15.096-15.327 0-8.396 6.754-15.327 15.096-15.327 8.343 0 15.097 6.798 15.097 15.327 0.133 8.53-6.621 15.327-15.097 15.327z" fill="#fff" fill-rule="nonzero"/>
<path id="Path" d="m405.05 250.3h-6.091v86.763c1.324-0.266 2.516-0.266 3.84-0.266 1.987 0 3.841 0.666 5.165 1.466v-87.963h-2.914z" fill="#fff" fill-rule="nonzero"/>
<path id="Path" d="m401.48 237.5h3.575 2.914v-96.093c-2.516 1.599-5.562 2.532-9.005 2.532v93.561h2.516z" fill="#fff" fill-rule="nonzero"/>
<polygon id="Path" points="333.15 75.968 322.16 75.968 344.14 88.896 355.26 88.896" fill="#fff" fill-rule="nonzero"/>
<polygon id="Path" points="17.705 165.66 0.755 165.66 0.755 178.46 17.705 178.46" fill="#00F2D5" fill-rule="nonzero"/>
<polygon id="Path" points="29.889 287.41 16.116 287.41 16.116 300.21 29.889 300.21" fill="#FF3956" fill-rule="nonzero"/>
<path id="Path" d="m21.546 165.66v-25.856c-1.589 0.666-3.311 0.933-4.9 0.933-0.927 0-1.986-0.134-2.781-0.667v25.59h7.681z" fill="#fff" fill-rule="nonzero"/>
<path id="Path" d="m13.865 178.46v158.87c1.722-0.8 3.708-1.2 5.695-1.2 0.794 0 1.456 0.133 1.986 0.267v-157.93h-7.681z" fill="#fff" fill-rule="nonzero"/>
<polygon id="Path" points="217.14 63.04 214.1 63.04 214.1 75.835 217.14 75.835" fill="#12339E" fill-rule="nonzero"/>
<polygon id="Path" points="240.21 63.307 229.32 63.307 229.32 75.968 240.21 75.968" fill="#FFDE52" fill-rule="nonzero"/>
<path id="Path" d="m214.1 63.04v-38.25c-0.662 0.1333-1.06 0.2665-1.722 0.5331h-2.913c-1.06-0.1333-2.119-0.5331-3.046-0.933v38.783h7.681v-0.133z" fill="#fff" fill-rule="nonzero"/>
<path id="Path" d="m206.41 75.968v21.058c1.589-0.267 3.311-0.4 4.9-0.4 0.927 0 1.854 0.133 2.781 0.267v-20.925h-7.681z" fill="#fff" fill-rule="nonzero"/>
<path id="Path" d="m69.219 376.64-41.582-24.123c-1.589 2.533-3.973 4.265-7.019 4.932l33.107 19.325h15.494v-0.134z" fill="#fff" fill-rule="nonzero"/>
<path id="Path" d="m91.203 389.17h-15.494l123.69 71.97v-0.667-0.533c0.133-1.866 0.927-3.598 1.986-5.198l0.927-0.933-111.11-64.639z" fill="#fff" fill-rule="nonzero"/>
<path id="Path" d="m344.8 389.3 53.633-31.32c-2.781-0.534-5.164-2.533-6.621-5.198l-62.638 36.384 15.626 0.134z" fill="#fff" fill-rule="nonzero"/>
<path id="Path" d="m307.32 402.1-89.256 51.845c0.133 0.133 0.265 0.267 0.265 0.533 0.927 1.067 1.589 2.399 1.854 3.732 0.53 0.933 0.662 1.999 0.662 3.065l101.84-59.175h-15.362z" fill="#fff" fill-rule="nonzero"/>
<path id="Path" d="m238.86 327.6-6.356 7.731h80.383v-1.467c0.53-2.665 1.854-4.798 3.841-6.397h-77.868v0.133z" fill="#fff" fill-rule="nonzero"/>
<path id="Path" d="m103.12 335.46h113.09l6.357-7.73h-121.7c1.722 2.132 2.649 4.798 2.384 7.33 0 0 0 0.133-0.133 0.4z" fill="#fff" fill-rule="nonzero"/>
<polygon id="Path" points="403.83 237.5 399.84 237.5 397.03 237.5 394.07 237.5 394.07 250.43 399.84 250.43 402.64 250.43 403.83 250.43" fill="#fff" fill-rule="nonzero"/>
<path id="Path" d="m337.38 292.54-9.534 25.456c2.648 0.933 4.767 3.332 6.091 6.131l11.919-31.587h-8.476z" fill="#fff" fill-rule="nonzero"/>
<polygon id="Path" points="13.865 165.66 9.098 165.66 9.098 178.46 13.865 178.46" fill="#fff" fill-rule="nonzero"/>
<polygon id="Path" points="344.8 389.3 322.82 402.1 339.5 402.1 361.35 389.3" fill="#fff" fill-rule="nonzero"/>
<path id="Path" d="m309.44 288.54h-9.137l16.421 32.253c1.854-1.999 4.502-3.332 7.283-3.598l-14.567-28.655z" fill="#fff" fill-rule="nonzero"/>
<polygon id="Path" points="291.17 252.83 300.3 252.83 252.9 159.8 243.76 159.8" fill="#fff"/>
<polygon id="Path" points="285.87 288.54 300.97 288.54 293.02 273.22 278.06 273.22" fill="#fff" fill-rule="nonzero"/>
<polygon id="Path" points="311.63 273.22 296.6 273.22 304.5 288.52 319.54 288.52" fill="#12339E" fill-rule="nonzero"/>
<polygon id="Path" points="278.26 273.24 263.23 273.24 271.14 288.54 286.17 288.54" fill="#00F2D5" fill-rule="nonzero"/>
<path id="Shape" d="m243.57 159.49-24.428-47.833c-1.46 2.806-3.584 4.677-6.24 5.879l21.375 41.954h9.293zm47.661 93.262 10.355 20.442v0.134h-9.16l-10.488-20.576h9.293z" fill="#fff"/>
<polygon id="Path" points="356.32 389.4 334.47 402.2 351.42 402.2 373.27 389.4" fill="#00F2D5" fill-rule="nonzero"/>
<polygon id="Path" points="329.98 292.54 337.69 292.54 345.02 273.43 337.13 273.43" fill="#fff" fill-rule="nonzero"/>
<polygon id="Path" points="205.88 348.25 222.17 348.25 232.64 335.33 216.21 335.33" fill="#fff" fill-rule="nonzero"/>
<polygon id="Path" points="234.01 360.41 243.53 360.41 253.33 348.25 243.8 348.25" fill="#FFDE52" fill-rule="nonzero"/>
<polygon id="Path" points="246.5 360.41 287.58 360.41 297.38 348.25 256.29 348.25" fill="#fff" fill-rule="nonzero"/>
<polygon id="Path" points="212.51 360.41 228 360.41 237.8 348.25 222.3 348.25" fill="#FF3956" fill-rule="nonzero"/>
<path id="Shape" d="m157.02 409.56 41.847 46.247c1.059-2.266 3.045-3.865 5.562-4.931l-37.477-41.316h-9.932zm-62.109-68.638c2.649-0.533 5.165-1.732 6.622-3.598l30.723 33.985h-9.932l-27.413-30.387z" fill="#fff"/>
<polygon id="Path" points="141.66 371.31 131.72 371.31 166.42 410.09 176.35 410.09" fill="#fff"/>
<polygon id="Path" points="223.89 63.307 218.46 63.307 218.46 75.968 223.89 75.968" fill="#fff" fill-rule="nonzero"/>
<path id="b" d="m135.57 63.173 66.743-38.783c-1.722-2.1324-2.516-5.1978-2.384-7.5968l-79.721 46.38h15.362zm-107.8 62.641c-1.06-2.533-2.914-4.665-5.297-5.865l75.483-43.848h15.494l-85.68 49.713z" fill="#fff"/>
<path id="Path" d="m344.54 88.896h-1.192-13.905l-21.983-12.795h5.695 9.27l-101.18-58.775v1.5994c-0.265 2.5322-1.192 4.3981-2.648 5.8642l173.74 100.76c2.119-2.132 5.43-3.465 9.005-3.465h0.795l-57.606-33.186z" fill="#fff" fill-rule="nonzero"/>
<polygon id="Path" points="344.4 75.968 333.41 75.968 355.4 88.896 366.52 88.896" fill="#00F2D5" fill-rule="nonzero"/>
<polygon id="Path" points="308 76.069 297.04 76.069 318.96 88.896 330.05 88.896" fill="#fff" fill-rule="nonzero"/>
<polygon id="Path" points="125.07 60.304 140.48 60.304 109.67 78.423 94.077 78.423" fill="#fff" fill-rule="nonzero"/>
<polygon id="Path" points="320.85 379.31 303.77 389.17 329.2 389.17 346.28 379.31" fill="#13F5E0" fill-rule="nonzero"/>
<polygon id="Path" points="334.65 402.1 322.2 409.43 341.4 409.43 354.12 402.1" fill="#12339E" fill-rule="nonzero"/>
<polygon id="Path" points="240.41 402.1 234.01 409.43 264.66 409.43 271.2 402.1" fill="#12339E" fill-rule="nonzero"/>
<path id="Path" d="m177.15 176.59 29.663-58.375c-2.516-0.933-4.635-3.332-5.826-6.131l-32.842 64.506h9.005z" fill="#fff" fill-rule="nonzero"/>
<polygon id="Path" points="194.65 176.59 179.56 176.59 171.74 191.92 186.71 191.92" fill="#00F2D5" fill-rule="nonzero"/>
<polygon id="Path" points="191.45 176.59 176.35 176.59 168.54 191.92 183.5 191.92" fill="#fff" fill-rule="nonzero"/>
<polygon id="Path" points="213.76 176.59 198.67 176.59 190.85 191.92 205.82 191.92" fill="#FFDE52" fill-rule="nonzero"/>
<polygon id="Path" points="135.63 253.72 128.76 267.09 155.72 267.09 162.47 253.72" fill="#FF3956" fill-rule="nonzero"/>
<polygon id="Path" points="165.1 253.72 158.35 267.09 163.39 267.09 170.25 253.72" fill="#FFDE52" fill-rule="nonzero"/>
<polygon id="Path" points="137.16 253.76 164.3 200.32 155.3 200.32 155.3 200.45 128.28 253.76" fill="#fff"/>
<polygon id="Path" points="102.86 320.53 130 267.09 121 267.09 121 267.22 93.983 320.53" fill="#fff"/>
<path d="m33.596 182.59 51.647 138.21c1.854-1.999 4.37-3.065 7.151-3.465l-50.455-134.74h-8.343zm-7.945-41.183c0.132-0.266 0.397-0.4 0.53-0.666l10.594 28.255h-8.211l-9.137-24.524h0.662c1.854-0.266 3.575-1.199 5.165-2.532 0-0.133 0.264-0.266 0.397-0.533z" fill="#fff"/>
<polygon id="Path" points="412.87 237.5 410.75 237.5 409.16 237.5 407.7 237.5 407.7 250.3 410.75 250.3 412.07 250.3 412.87 250.3" fill="#fff" fill-rule="nonzero"/>
<polygon id="Path" points="371.55 172.33 366.52 185.26 377.11 185.26 382.28 172.33" fill="#FFDE52" fill-rule="nonzero"/>
<polygon id="Path" points="350.08 172.33 345.05 185.26 362.57 185.26 367.73 172.33" fill="#00F2D5" fill-rule="nonzero"/>
<polygon id="Path" points="329.04 172.33 324.01 185.26 341.53 185.26 346.69 172.33" fill="#12339E" fill-rule="nonzero"/>
<path id="Path" d="m399.76 145.01c-2.384 0-4.503-1.2-6.224-2.933l-11.124 29.855h2.781l-5.165 13.461h-2.781l-34.961 93.693h8.343l50.058-133.94c-0.133-0.133-0.398-0.133-0.927-0.133z" fill="#fff" fill-rule="nonzero"/>
<polygon id="Path" points="90.805 389.44 68.822 376.64 82.727 376.64 104.71 389.44" fill="#fff" fill-rule="nonzero"/>
<polygon id="Path" points="103.52 389.44 81.535 376.64 95.44 376.64 117.42 389.44" fill="#FF3956" fill-rule="nonzero"/>
<polygon id="Path" points="42.948 389.17 20.767 376.23 53.038 376.36 75.714 389.17" fill="#00F2D5" fill-rule="nonzero"/>
<path id="Path" d="m221.78 108.49c0.264-0.933 0.662-2 0.662-2.932 0.132-1.866-0.398-3.466-0.927-5.065l172.16 27.189c-0.927 0.933-1.721 1.999-2.251 3.065-0.662 1.333-1.192 2.665-1.192 4.265l-168.45-26.522z" fill="#fff" fill-rule="nonzero"/>
<path id="Path" d="m391.28 347.05-55.487-9.33c1.721-1.999 2.516-4.798 2.516-7.33l53.633 9.063c-0.397 2.532-0.53 5.065-0.662 7.597z" fill="#fff" fill-rule="nonzero"/>
<polygon id="Path" points="49.974 168.93 55.34 182.72 42.134 182.72 36.769 168.93" fill="#00F2D5" fill-rule="nonzero"/>
<polygon id="Path" points="70.078 168.93 75.443 182.72 68.376 182.72 63.01 168.93" fill="#fff" fill-rule="nonzero"/>
<polygon id="c" points="98.928 168.93 104.29 182.72 78.812 182.72 73.446 168.93" fill="#fff" fill-rule="nonzero"/>
<polygon points="57.801 154.96 63.167 168.75 49.962 168.75 44.596 154.96" fill="#FFDE52" fill-rule="nonzero"/>
</g>
</g>
</svg>
